<svg width="200" height="220" viewBox="0 0 200 220" fill="none" xmlns="http://www.w3.org/2000/svg">
<path d="M43.3668 25.6349L65.4783 69.69H51.6586L54.8832 81.8167L32.7718 74.295L39.9887 94.0968L25.8619 85.5007L15.7275 66.4664L17.2631 41.7526L20.6412 0L39.9887 31.4679L43.3668 25.6349Z" fill="#E7FBF8"/>
<path d="M156.688 25.6349L134.576 69.69H148.396L145.171 81.8167L167.283 74.295L160.066 94.0968L174.193 85.5007L184.327 66.4664L182.792 41.7526L179.413 0L160.066 31.4679L156.688 25.6349Z" fill="#E7FBF8"/>
<path d="M73.3977 179.005L67.8698 195.122L58.3496 184.07L63.5704 198.499L37.6202 176.395L16.1229 167.492L31.3245 165.496L20.7295 160.431L0 155.826L12.7448 148.918L28.1 146.155L18.7333 139.248H43.7622L35.1633 124.972L64.884 130.087L71.248 126.967L83.9928 155.826L87.2173 173.479L80.9217 165.496L73.3977 179.005Z" fill="#E7FBF8"/>
<path d="M126.602 179.005L132.13 195.122L141.65 184.07L136.43 198.499L162.38 176.395L183.877 167.492L168.675 165.496L179.271 160.431L200 155.826L187.255 148.918L171.9 146.155L181.267 139.248H156.238L164.837 124.972L135.116 130.087L128.752 126.967L116.007 155.826L112.783 173.479L119.078 165.496L126.602 179.005Z" fill="#E7FBF8"/>
<path d="M85.7473 210.759C85.993 211.373 96.0864 216.694 100.335 219.048L114.922 210.759L117.686 203.083L114.922 191.417L100.335 185.431L85.7473 191.417L82.3691 203.083C83.3928 205.386 85.5016 210.145 85.7473 210.759Z" fill="#E7FBF8"/>
</svg>
