<svg width="270" height="74" viewBox="0 0 270 74" fill="none" xmlns="http://www.w3.org/2000/svg">
<path d="M0 42.5004L7.71319 21.8379H11.8269L19.5687 42.5004H15.1407L13.6838 38.3109H5.62777L4.17084 42.5004H0ZM9.65578 26.8254L6.79904 34.9764H12.5125L9.65578 26.8254ZM34.8113 42.5004L30.6976 34.4064H29.7263H26.3554V42.5004H22.2702V21.8379H29.0693C35.8969 21.8379 38.4965 23.7759 38.4965 28.1079C38.4965 30.4734 37.3252 32.4684 34.7542 33.5514L39.3535 42.5004H34.8113ZM29.5263 25.0299H26.3554V31.2429H29.7263C32.8973 31.2429 34.2971 30.1599 34.2971 28.1364C34.2971 25.7424 32.2974 25.0299 29.5263 25.0299ZM56.3762 35.7174H60.2614C59.7186 39.8784 56.262 42.8709 51.2912 42.8709C45.1492 42.8709 41.6069 38.6529 41.6069 32.0694C41.6069 25.5429 45.3778 21.4674 51.4055 21.4674C56.262 21.4674 59.5758 24.2319 60.2614 28.5354H56.3762C55.6049 25.6569 53.6623 24.7164 51.3769 24.7164C48.2345 24.7164 45.8349 27.2814 45.8349 32.0694C45.8349 36.9999 48.2345 39.6219 51.2341 39.6219C53.6909 39.6219 55.7192 38.5104 56.3762 35.7174ZM77.0804 21.8379H81.1655V42.5004H77.0804V33.5799H67.796V42.5004H63.7108V21.8379H67.796V30.2739H77.0804V21.8379ZM85.7423 42.5004V21.8379H100.826V25.1439H89.8274V30.2739H100.226V33.5799H89.8274V39.1944H100.826V42.5004H85.7423ZM108.887 42.5004V25.1439H102.517V21.8379H119.372V25.1439H112.972V42.5004H108.887ZM120.743 21.8379H125.514L130.342 30.4734L135.256 21.8379H139.912L132.285 34.5204V42.5004H128.199V34.4634L120.743 21.8379ZM142.351 21.8379H149.436C153.693 21.8379 158.549 22.4364 158.549 28.6779C158.549 33.9504 154.321 35.2329 149.55 35.2329H146.437V42.5004H142.351V21.8379ZM149.522 25.0299H146.437V32.0694H149.807C152.35 32.0694 154.35 31.4424 154.35 28.7064C154.35 25.3149 151.75 25.0299 149.522 25.0299ZM161.454 42.5004V21.8379H176.537V25.1439H165.539V30.2739H175.937V33.5799H165.539V39.1944H176.537V42.5004H161.454ZM185.387 42.5004L193.1 21.8379H197.214L204.956 42.5004H200.528L199.071 38.3109H191.015L189.558 42.5004H185.387ZM195.043 26.8254L192.186 34.9764H197.9L195.043 26.8254ZM211.741 21.8379V42.5004H207.656V21.8379H211.741Z" fill="#E7FBF8"/>
<path d="M6.8125 54.7969L11.1328 66H9.53125L8.53906 63.4219H3.48438L2.49219 66H0.890625L5.21094 54.7969H6.8125ZM4.09375 61.8203H7.92188L6.01562 56.8828L4.09375 61.8203ZM14.6562 54.7969V66H13.0547V54.7969H14.6562ZM28.0312 64.3984C28.776 64.3984 29.349 64.1979 29.75 63.7969C30.151 63.3958 30.3516 62.8229 30.3516 62.0781V58.7188C30.3516 58.3542 30.2995 58.0286 30.1953 57.7422C30.0911 57.4557 29.9375 57.2135 29.7344 57.0156C29.5365 56.8125 29.2943 56.6589 29.0078 56.5547C28.7214 56.4505 28.3958 56.3984 28.0312 56.3984H23.9375V64.3984H28.0312ZM22.3359 66V54.7969H28.0312C28.6302 54.7969 29.1693 54.8906 29.6484 55.0781C30.1328 55.2604 30.5443 55.5234 30.8828 55.8672C31.2266 56.2057 31.4896 56.6172 31.6719 57.1016C31.8594 57.5859 31.9531 58.125 31.9531 58.7188V62.0781C31.9531 62.6719 31.8594 63.2109 31.6719 63.6953C31.4896 64.1797 31.2266 64.5938 30.8828 64.9375C30.5443 65.276 30.1328 65.5391 29.6484 65.7266C29.1693 65.9089 28.6302 66 28.0312 66H22.3359ZM34.3672 62.3672C34.3672 62.1536 34.4062 61.9557 34.4844 61.7734C34.5677 61.5859 34.6771 61.4219 34.8125 61.2812C34.9531 61.1406 35.1172 61.0312 35.3047 60.9531C35.4922 60.8698 35.6901 60.8281 35.8984 60.8281H39.8672V59.2188H34.8438V57.6797H39.8672C40.0807 57.6797 40.2812 57.7214 40.4688 57.8047C40.6562 57.8828 40.8177 57.9922 40.9531 58.1328C41.0938 58.2682 41.2031 58.4297 41.2812 58.6172C41.3646 58.8047 41.4062 59.0052 41.4062 59.2188V66H39.8672V64.5938C39.8516 64.7865 39.7995 64.9688 39.7109 65.1406C39.6224 65.3125 39.5078 65.4635 39.3672 65.5938C39.2318 65.7188 39.0755 65.8177 38.8984 65.8906C38.7214 65.9635 38.5339 66 38.3359 66H35.8984C35.6901 66 35.4922 65.9609 35.3047 65.8828C35.1172 65.7995 34.9531 65.6901 34.8125 65.5547C34.6771 65.4141 34.5677 65.25 34.4844 65.0625C34.4062 64.875 34.3672 64.6745 34.3672 64.4609V62.3672ZM35.8984 64.4609H39.8672V62.3672H35.8984V64.4609ZM43.4922 57.6797H45.5234V55.1172H47.0625V57.6797H49.7969V59.2188H47.0625V64.4609H49.7969V66H47.0625C46.8542 66 46.6562 65.9609 46.4688 65.8828C46.2812 65.7995 46.1172 65.6901 45.9766 65.5547C45.8359 65.4141 45.724 65.25 45.6406 65.0625C45.5625 64.875 45.5234 64.6745 45.5234 64.4609V59.2188H43.4922V57.6797ZM52.3672 62.3672C52.3672 62.1536 52.4062 61.9557 52.4844 61.7734C52.5677 61.5859 52.6771 61.4219 52.8125 61.2812C52.9531 61.1406 53.1172 61.0312 53.3047 60.9531C53.4922 60.8698 53.6901 60.8281 53.8984 60.8281H57.8672V59.2188H52.8438V57.6797H57.8672C58.0807 57.6797 58.2812 57.7214 58.4688 57.8047C58.6562 57.8828 58.8177 57.9922 58.9531 58.1328C59.0938 58.2682 59.2031 58.4297 59.2812 58.6172C59.3646 58.8047 59.4062 59.0052 59.4062 59.2188V66H57.8672V64.5938C57.8516 64.7865 57.7995 64.9688 57.7109 65.1406C57.6224 65.3125 57.5078 65.4635 57.3672 65.5938C57.2318 65.7188 57.0755 65.8177 56.8984 65.8906C56.7214 65.9635 56.5339 66 56.3359 66H53.8984C53.6901 66 53.4922 65.9609 53.3047 65.8828C53.1172 65.7995 52.9531 65.6901 52.8125 65.5547C52.6771 65.4141 52.5677 65.25 52.4844 65.0625C52.4062 64.875 52.3672 64.6745 52.3672 64.4609V62.3672ZM53.8984 64.4609H57.8672V62.3672H53.8984V64.4609ZM67 64.4609V62.5312H63.3516C63.138 62.5312 62.9375 62.4922 62.75 62.4141C62.5625 62.3307 62.3984 62.2214 62.2578 62.0859C62.1224 61.9453 62.013 61.7812 61.9297 61.5938C61.8516 61.4062 61.8125 61.2057 61.8125 60.9922V59.2188C61.8125 59.0052 61.8516 58.8047 61.9297 58.6172C62.013 58.4297 62.1224 58.2682 62.2578 58.1328C62.3984 57.9922 62.5625 57.8828 62.75 57.8047C62.9375 57.7214 63.138 57.6797 63.3516 57.6797H68.2188V59.2188H63.3516V60.9922H67C67.2135 60.9922 67.4115 61.0339 67.5938 61.1172C67.7812 61.1953 67.9453 61.3047 68.0859 61.4453C68.2266 61.5807 68.3359 61.7422 68.4141 61.9297C68.4974 62.1172 68.5391 62.3177 68.5391 62.5312V64.4609C68.5391 64.6745 68.4974 64.875 68.4141 65.0625C68.3359 65.25 68.2266 65.4141 68.0859 65.5547C67.9453 65.6901 67.7812 65.7995 67.5938 65.8828C67.4115 65.9609 67.2135 66 67 66H61.8125V64.4609H67ZM77.9844 62.625H72.4766V64.4609H77.9844V66H72.4766C72.2682 66 72.0703 65.9609 71.8828 65.8828C71.6953 65.7995 71.5312 65.6901 71.3906 65.5547C71.2552 65.4141 71.1458 65.25 71.0625 65.0625C70.9844 64.875 70.9453 64.6745 70.9453 64.4609V59.2188C70.9453 59.0052 70.9844 58.8047 71.0625 58.6172C71.1458 58.4297 71.2552 58.2682 71.3906 58.1328C71.5312 57.9922 71.6953 57.8828 71.8828 57.8047C72.0703 57.7214 72.2682 57.6797 72.4766 57.6797H76.4453C76.6589 57.6797 76.8594 57.7214 77.0469 57.8047C77.2344 57.8828 77.3958 57.9922 77.5312 58.1328C77.6719 58.2682 77.7812 58.4297 77.8594 58.6172C77.9427 58.8047 77.9844 59.0052 77.9844 59.2188V62.625ZM72.4766 59.2188V61.0859H76.4453V59.2188H72.4766ZM80.0703 57.6797H82.1016V55.1172H83.6406V57.6797H86.375V59.2188H83.6406V64.4609H86.375V66H83.6406C83.4323 66 83.2344 65.9609 83.0469 65.8828C82.8594 65.7995 82.6953 65.6901 82.5547 65.5547C82.4141 65.4141 82.3021 65.25 82.2188 65.0625C82.1406 64.875 82.1016 64.6745 82.1016 64.4609V59.2188H80.0703V57.6797ZM93.9688 64.4609V62.5312H90.3203C90.1068 62.5312 89.9062 62.4922 89.7188 62.4141C89.5312 62.3307 89.3672 62.2214 89.2266 62.0859C89.0911 61.9453 88.9818 61.7812 88.8984 61.5938C88.8203 61.4062 88.7812 61.2057 88.7812 60.9922V59.2188C88.7812 59.0052 88.8203 58.8047 88.8984 58.6172C88.9818 58.4297 89.0911 58.2682 89.2266 58.1328C89.3672 57.9922 89.5312 57.8828 89.7188 57.8047C89.9062 57.7214 90.1068 57.6797 90.3203 57.6797H95.1875V59.2188H90.3203V60.9922H93.9688C94.1823 60.9922 94.3802 61.0339 94.5625 61.1172C94.75 61.1953 94.9141 61.3047 95.0547 61.4453C95.1953 61.5807 95.3047 61.7422 95.3828 61.9297C95.4661 62.1172 95.5078 62.3177 95.5078 62.5312V64.4609C95.5078 64.6745 95.4661 64.875 95.3828 65.0625C95.3047 65.25 95.1953 65.4141 95.0547 65.5547C94.9141 65.6901 94.75 65.7995 94.5625 65.8828C94.3802 65.9609 94.1823 66 93.9688 66H88.7812V64.4609H93.9688ZM108.562 64.3984C109.307 64.3984 109.88 64.1979 110.281 63.7969C110.682 63.3958 110.883 62.8229 110.883 62.0781V58.7188C110.883 58.3542 110.831 58.0286 110.727 57.7422C110.622 57.4557 110.469 57.2135 110.266 57.0156C110.068 56.8125 109.826 56.6589 109.539 56.5547C109.253 56.4505 108.927 56.3984 108.562 56.3984H104.469V64.3984H108.562ZM102.867 66V54.7969H108.562C109.161 54.7969 109.701 54.8906 110.18 55.0781C110.664 55.2604 111.076 55.5234 111.414 55.8672C111.758 56.2057 112.021 56.6172 112.203 57.1016C112.391 57.5859 112.484 58.125 112.484 58.7188V62.0781C112.484 62.6719 112.391 63.2109 112.203 63.6953C112.021 64.1797 111.758 64.5938 111.414 64.9375C111.076 65.276 110.664 65.5391 110.18 65.7266C109.701 65.9089 109.161 66 108.562 66H102.867ZM116.516 57.6797V66H114.977V57.6797H116.516ZM114.898 54.4766H116.594V56.0781H114.898V54.4766ZM124.188 64.4609V62.5312H120.539C120.326 62.5312 120.125 62.4922 119.938 62.4141C119.75 62.3307 119.586 62.2214 119.445 62.0859C119.31 61.9453 119.201 61.7812 119.117 61.5938C119.039 61.4062 119 61.2057 119 60.9922V59.2188C119 59.0052 119.039 58.8047 119.117 58.6172C119.201 58.4297 119.31 58.2682 119.445 58.1328C119.586 57.9922 119.75 57.8828 119.938 57.8047C120.125 57.7214 120.326 57.6797 120.539 57.6797H125.406V59.2188H120.539V60.9922H124.188C124.401 60.9922 124.599 61.0339 124.781 61.1172C124.969 61.1953 125.133 61.3047 125.273 61.4453C125.414 61.5807 125.523 61.7422 125.602 61.9297C125.685 62.1172 125.727 62.3177 125.727 62.5312V64.4609C125.727 64.6745 125.685 64.875 125.602 65.0625C125.523 65.25 125.414 65.4141 125.273 65.5547C125.133 65.6901 124.969 65.7995 124.781 65.8828C124.599 65.9609 124.401 66 124.188 66H119V64.4609H124.188ZM127.648 57.6797H129.68V55.1172H131.219V57.6797H133.953V59.2188H131.219V64.4609H133.953V66H131.219C131.01 66 130.812 65.9609 130.625 65.8828C130.438 65.7995 130.273 65.6901 130.133 65.5547C129.992 65.4141 129.88 65.25 129.797 65.0625C129.719 64.875 129.68 64.6745 129.68 64.4609V59.2188H127.648V57.6797ZM138.055 59.2188V66H136.523V57.6797H138.055V59.1484C138.065 58.9453 138.112 58.7552 138.195 58.5781C138.279 58.3958 138.388 58.2396 138.523 58.1094C138.664 57.974 138.826 57.8698 139.008 57.7969C139.19 57.7188 139.385 57.6797 139.594 57.6797H141.227C141.44 57.6797 141.638 57.7214 141.82 57.8047C142.008 57.8828 142.172 57.9922 142.312 58.1328C142.453 58.2682 142.562 58.4297 142.641 58.6172C142.724 58.8047 142.766 59.0052 142.766 59.2188V60.625H141.227V59.2188H138.055ZM146.297 57.6797V66H144.758V57.6797H146.297ZM144.68 54.4766H146.375V56.0781H144.68V54.4766ZM156.305 64.4609C156.305 64.6745 156.263 64.875 156.18 65.0625C156.102 65.25 155.992 65.4141 155.852 65.5547C155.716 65.6901 155.555 65.7995 155.367 65.8828C155.18 65.9609 154.979 66 154.766 66H150.477C150.268 66 150.07 65.9609 149.883 65.8828C149.695 65.7995 149.531 65.6901 149.391 65.5547C149.255 65.4141 149.146 65.25 149.062 65.0625C148.984 64.875 148.945 64.6745 148.945 64.4609V54.4766H150.477V59.1484C150.487 58.9453 150.534 58.7552 150.617 58.5781C150.701 58.3958 150.81 58.2396 150.945 58.1094C151.086 57.974 151.247 57.8698 151.43 57.7969C151.612 57.7188 151.807 57.6797 152.016 57.6797H154.766C154.979 57.6797 155.18 57.7214 155.367 57.8047C155.555 57.8828 155.716 57.9922 155.852 58.1328C155.992 58.2682 156.102 58.4297 156.18 58.6172C156.263 58.8047 156.305 59.0052 156.305 59.2188V64.4609ZM150.477 59.2188V64.4609H154.766V59.2188H150.477ZM158.867 57.6797H160.398V64.4609H164.688V57.6797H166.227V66H164.688V64.5938C164.672 64.7865 164.62 64.9688 164.531 65.1406C164.443 65.3125 164.328 65.4635 164.188 65.5938C164.052 65.7188 163.896 65.8177 163.719 65.8906C163.542 65.9635 163.354 66 163.156 66H160.398C160.19 66 159.992 65.9609 159.805 65.8828C159.617 65.7995 159.453 65.6901 159.312 65.5547C159.177 65.4141 159.068 65.25 158.984 65.0625C158.906 64.875 158.867 64.6745 158.867 64.4609V57.6797ZM168.305 57.6797H170.336V55.1172H171.875V57.6797H174.609V59.2188H171.875V64.4609H174.609V66H171.875C171.667 66 171.469 65.9609 171.281 65.8828C171.094 65.7995 170.93 65.6901 170.789 65.5547C170.648 65.4141 170.536 65.25 170.453 65.0625C170.375 64.875 170.336 64.6745 170.336 64.4609V59.2188H168.305V57.6797ZM178.797 57.6797V66H177.258V57.6797H178.797ZM177.18 54.4766H178.875V56.0781H177.18V54.4766ZM188.641 64.4609C188.641 64.6745 188.599 64.875 188.516 65.0625C188.438 65.25 188.328 65.4141 188.188 65.5547C188.052 65.6901 187.891 65.7995 187.703 65.8828C187.521 65.9609 187.323 66 187.109 66H182.977C182.768 66 182.57 65.9609 182.383 65.8828C182.195 65.7995 182.031 65.6901 181.891 65.5547C181.755 65.4141 181.646 65.25 181.562 65.0625C181.484 64.875 181.445 64.6745 181.445 64.4609V59.2188C181.445 59.0052 181.484 58.8047 181.562 58.6172C181.646 58.4297 181.755 58.2682 181.891 58.1328C182.031 57.9922 182.195 57.8828 182.383 57.8047C182.57 57.7214 182.768 57.6797 182.977 57.6797H187.109C187.323 57.6797 187.521 57.7214 187.703 57.8047C187.891 57.8828 188.052 57.9922 188.188 58.1328C188.328 58.2682 188.438 58.4297 188.516 58.6172C188.599 58.8047 188.641 59.0052 188.641 59.2188V64.4609ZM182.977 59.2188V64.4609H187.109V59.2188H182.977ZM198.57 66H197.031V59.2188H192.742V66H191.211V57.6797H192.742V59.1484C192.753 58.9453 192.799 58.7552 192.883 58.5781C192.966 58.3958 193.076 58.2396 193.211 58.1094C193.352 57.974 193.513 57.8698 193.695 57.7969C193.878 57.7188 194.073 57.6797 194.281 57.6797H197.031C197.245 57.6797 197.445 57.7214 197.633 57.8047C197.82 57.8828 197.982 57.9922 198.117 58.1328C198.258 58.2682 198.367 58.4297 198.445 58.6172C198.529 58.8047 198.57 59.0052 198.57 59.2188V66ZM206.086 66V54.7969H212.219C214.031 54.7969 214.938 55.7057 214.938 57.5234V59.1172C214.938 60.9349 214.031 61.8438 212.219 61.8438H207.688V66H206.086ZM207.688 60.2422H212.133C212.56 60.2422 212.867 60.1484 213.055 59.9609C213.242 59.7734 213.336 59.4661 213.336 59.0391V57.6016C213.336 57.1745 213.242 56.8672 213.055 56.6797C212.867 56.4922 212.56 56.3984 212.133 56.3984H207.688V60.2422ZM217.023 62.3672C217.023 62.1536 217.062 61.9557 217.141 61.7734C217.224 61.5859 217.333 61.4219 217.469 61.2812C217.609 61.1406 217.773 61.0312 217.961 60.9531C218.148 60.8698 218.346 60.8281 218.555 60.8281H222.523V59.2188H217.5V57.6797H222.523C222.737 57.6797 222.938 57.7214 223.125 57.8047C223.312 57.8828 223.474 57.9922 223.609 58.1328C223.75 58.2682 223.859 58.4297 223.938 58.6172C224.021 58.8047 224.062 59.0052 224.062 59.2188V66H222.523V64.5938C222.508 64.7865 222.456 64.9688 222.367 65.1406C222.279 65.3125 222.164 65.4635 222.023 65.5938C221.888 65.7188 221.732 65.8177 221.555 65.8906C221.378 65.9635 221.19 66 220.992 66H218.555C218.346 66 218.148 65.9609 217.961 65.8828C217.773 65.7995 217.609 65.6901 217.469 65.5547C217.333 65.4141 217.224 65.25 217.141 65.0625C217.062 64.875 217.023 64.6745 217.023 64.4609V62.3672ZM218.555 64.4609H222.523V62.3672H218.555V64.4609ZM228.164 59.2188V66H226.633V57.6797H228.164V59.1484C228.174 58.9453 228.221 58.7552 228.305 58.5781C228.388 58.3958 228.497 58.2396 228.633 58.1094C228.773 57.974 228.935 57.8698 229.117 57.7969C229.299 57.7188 229.495 57.6797 229.703 57.6797H231.336C231.549 57.6797 231.747 57.7214 231.93 57.8047C232.117 57.8828 232.281 57.9922 232.422 58.1328C232.562 58.2682 232.672 58.4297 232.75 58.6172C232.833 58.8047 232.875 59.0052 232.875 59.2188V60.625H231.336V59.2188H228.164ZM234.305 57.6797H236.336V55.1172H237.875V57.6797H240.609V59.2188H237.875V64.4609H240.609V66H237.875C237.667 66 237.469 65.9609 237.281 65.8828C237.094 65.7995 236.93 65.6901 236.789 65.5547C236.648 65.4141 236.536 65.25 236.453 65.0625C236.375 64.875 236.336 64.6745 236.336 64.4609V59.2188H234.305V57.6797ZM250.539 66H249V59.2188H244.711V66H243.18V57.6797H244.711V59.1484C244.721 58.9453 244.768 58.7552 244.852 58.5781C244.935 58.3958 245.044 58.2396 245.18 58.1094C245.32 57.974 245.482 57.8698 245.664 57.7969C245.846 57.7188 246.042 57.6797 246.25 57.6797H249C249.214 57.6797 249.414 57.7214 249.602 57.8047C249.789 57.8828 249.951 57.9922 250.086 58.1328C250.227 58.2682 250.336 58.4297 250.414 58.6172C250.497 58.8047 250.539 59.0052 250.539 59.2188V66ZM260.141 62.625H254.633V64.4609H260.141V66H254.633C254.424 66 254.227 65.9609 254.039 65.8828C253.852 65.7995 253.688 65.6901 253.547 65.5547C253.411 65.4141 253.302 65.25 253.219 65.0625C253.141 64.875 253.102 64.6745 253.102 64.4609V59.2188C253.102 59.0052 253.141 58.8047 253.219 58.6172C253.302 58.4297 253.411 58.2682 253.547 58.1328C253.688 57.9922 253.852 57.8828 254.039 57.8047C254.227 57.7214 254.424 57.6797 254.633 57.6797H258.602C258.815 57.6797 259.016 57.7214 259.203 57.8047C259.391 57.8828 259.552 57.9922 259.688 58.1328C259.828 58.2682 259.938 58.4297 260.016 58.6172C260.099 58.8047 260.141 59.0052 260.141 59.2188V62.625ZM254.633 59.2188V61.0859H258.602V59.2188H254.633ZM264.242 59.2188V66H262.711V57.6797H264.242V59.1484C264.253 58.9453 264.299 58.7552 264.383 58.5781C264.466 58.3958 264.576 58.2396 264.711 58.1094C264.852 57.974 265.013 57.8698 265.195 57.7969C265.378 57.7188 265.573 57.6797 265.781 57.6797H267.414C267.628 57.6797 267.826 57.7214 268.008 57.8047C268.195 57.8828 268.359 57.9922 268.5 58.1328C268.641 58.2682 268.75 58.4297 268.828 58.6172C268.911 58.8047 268.953 59.0052 268.953 59.2188V60.625H267.414V59.2188H264.242Z" fill="#1CE9E0"/>
</svg>
