<svg width="290" height="74" viewBox="0 0 290 74" fill="none" xmlns="http://www.w3.org/2000/svg">
<path d="M0 15.4196V40.3659H48.3468V15.4196H0Z" fill="#0E1918"/>
<path fill-rule="evenodd" clip-rule="evenodd" d="M53.9722 36.2408C54.0064 38.7914 56.4134 40.276 60.9971 40.276C66.5503 40.276 69.1401 39.0074 69.1401 35.9926C69.1401 32.4795 63.3853 32.2142 60.9629 31.8759C59.7594 31.7075 59.1739 31.5595 59.1739 31.0273C59.1739 30.5598 59.7594 30.087 60.8639 30.087C62.3184 30.087 63.2112 30.6277 63.3273 31.3759H68.7986C68.599 28.6943 65.9819 27.351 61.0637 27.351C57.1918 27.351 54.247 28.6773 54.247 31.4269C54.247 33.442 55.5717 34.7784 58.4722 35.0795L61.9668 35.4416C64.5957 35.7154 64.6026 37.5025 61.9957 37.5025C60.7085 37.5025 59.8669 36.875 59.7832 36.2408H53.9722ZM105.574 27.8781H101.129V33.1087C101.129 38.5909 100.512 39.9835 108.271 40.2436C115.87 40.5803 115.397 37.3223 115.397 33.1087V27.878H110.95V33.7597C110.95 36.0247 110.757 37.3272 108.271 37.3663C105.222 37.3272 105.574 36.0248 105.574 33.7597V27.8781ZM133.315 39.907H137.999V27.878H133.315V39.907ZM116.621 39.907H121.304L121.211 35.5964L125.894 39.907H132.048L125.363 33.7667L132.4 27.8781H126.551L121.304 32.0424V27.8781H116.621V39.907ZM85.404 39.907H99.7868V36.977H92.5041L99.7833 30.6106V27.878H85.8206V30.6565H92.9531L85.4041 37.4769L85.404 39.907ZM74.6576 27.878H70.2122V33.1086C70.2122 38.5907 69.596 39.9834 77.3549 40.2435C84.9533 40.5802 84.4805 37.3222 84.4805 33.1086V27.878H80.0333V33.7597C80.0333 36.0247 79.8405 37.3272 77.3549 37.3663C74.306 37.3272 74.6575 36.0248 74.6575 33.7597L74.6576 27.878ZM57.9566 25.2595L57.7399 18.2045L61.6834 25.2595H65.2666L69.0684 18.1518L68.8517 25.2595H72.8924V15.8562H66.2226L63.4195 21.8178L60.4559 15.8562H53.9722V25.2595H57.9566ZM105.663 15.8562V21.9928C105.663 24.331 107.005 25.2696 110.767 25.2696H114.152C117.288 25.2696 118.997 24.3956 118.997 22.0965V15.8561H114.871V21.5049C114.871 22.8177 114.311 23.088 112.653 23.088H112.208C110.214 23.088 109.815 22.872 109.815 21.5049V15.8561L105.663 15.8562ZM128.356 25.2595V17.9578H132.47V15.8562H120.363V17.9578H124.32V25.2595H128.356ZM78.1999 25.2595L78.9664 23.644H84.4583L85.2299 25.2595H89.4175L84.8254 15.8562H78.4628L73.9013 25.2595H78.1999ZM79.7944 21.7753L81.691 17.781L83.6098 21.7753H79.7944ZM98.8581 15.8323H90.435V25.2595H94.5441V22.7801H97.5247C98.6975 22.7801 99.2849 23.0011 99.2849 23.8005V25.2594H103.56V23.3329C103.56 22.1987 102.236 21.6563 100.925 21.5576C102.387 21.2737 103.734 20.9029 103.705 19.0443C103.664 16.5346 102.39 15.8323 98.8581 15.8323ZM98.2162 18.0207C99.1312 18.0207 99.4231 18.5394 99.4231 19.2638C99.4231 20.1548 99.2097 20.5357 98.2162 20.5357H94.5441V18.0207H98.2162ZM133.882 15.8561H137.998V25.2594H133.882V15.8561Z" fill="#E7FBF8"/>
<path fill-rule="evenodd" clip-rule="evenodd" d="M0.636719 16.0585V39.7059H23.9713V16.0585H0.636719ZM24.3654 16.0585V39.7059H47.7079V16.0585H24.3654Z" fill="#E7FBF8"/>
<path fill-rule="evenodd" clip-rule="evenodd" d="M23.1726 33.3519L18.2715 38.4361H21.4672C22.5206 38.4293 23.1692 37.6845 23.1728 36.598L23.1726 33.3519ZM23.0105 22.8296V26.511C23.0122 27.2031 22.809 27.8051 22.3106 28.2743L18.1025 32.5033C17.8361 32.7788 17.7218 33.1087 17.8583 33.4165L23.072 28.1842V31.2569C23.0805 32.1394 22.8859 32.9726 22.3703 33.5984L17.7372 38.4343H12.6157V30.6788C12.6225 28.3084 12.9076 27.7982 13.6212 26.9973L22.9217 17.5396L22.92 21.1428C22.9234 21.828 22.6673 22.4249 22.1928 22.9078L18.0871 27.1351C17.8191 27.4105 17.7047 27.7405 17.843 28.0481L21.2437 24.6337L23.0105 22.8296ZM1.6388 33.3519L6.54166 38.4361H3.34424C2.29087 38.4293 1.64218 37.6845 1.63867 36.598L1.6388 33.3519ZM1.80091 22.8296V26.511C1.80091 27.2031 2.00241 27.8051 2.50095 28.2743L6.70896 32.5033C6.97533 32.7788 7.08973 33.1087 6.9531 33.4165L3.55081 30.0019L1.73955 28.1842V31.2569C1.73097 32.1394 1.92389 32.9726 2.44115 33.5984L7.07426 38.4343H12.1958V30.6788C12.1889 28.3084 11.9038 27.7982 11.1902 26.9973L1.89152 17.5396V21.1428C1.88801 21.828 2.1441 22.4249 2.61872 22.9078L6.7243 27.1351C6.99236 27.4105 7.10676 27.7405 6.96844 28.0481L3.56783 24.6337L1.80091 22.8296Z" fill="#384192"/>
<path fill-rule="evenodd" clip-rule="evenodd" d="M35.9392 17.3867C32.8252 20.1142 29.2744 22.1479 25.4794 23.7905L38.9966 33.3485L38.2352 33.709L32.6375 30.0361C30.816 28.8407 26.292 29.6688 25.3804 31.1873L35.7854 38.3767C38.6672 35.6407 42.1906 33.4727 46.298 31.8199L32.6221 22.4182L33.3475 21.8588L37.776 24.9893C39.9834 26.5503 41.7383 26.9618 46.4978 24.651L35.9392 17.3867Z" fill="#DE0029"/>
<path d="M7.40625 66L3.22656 57.7891V66H1.625V54.7969H3.375L7.64062 63.2344L11.9141 54.7969H13.6562V66H12.0625V57.7891L7.88281 66H7.40625ZM23.5859 64.4609C23.5859 64.6745 23.5443 64.875 23.4609 65.0625C23.3828 65.25 23.2734 65.4141 23.1328 65.5547C22.9974 65.6901 22.8359 65.7995 22.6484 65.8828C22.4661 65.9609 22.2682 66 22.0547 66H17.9219C17.7135 66 17.5156 65.9609 17.3281 65.8828C17.1406 65.7995 16.9766 65.6901 16.8359 65.5547C16.7005 65.4141 16.5911 65.25 16.5078 65.0625C16.4297 64.875 16.3906 64.6745 16.3906 64.4609V59.2188C16.3906 59.0052 16.4297 58.8047 16.5078 58.6172C16.5911 58.4297 16.7005 58.2682 16.8359 58.1328C16.9766 57.9922 17.1406 57.8828 17.3281 57.8047C17.5156 57.7214 17.7135 57.6797 17.9219 57.6797H22.0547C22.2682 57.6797 22.4661 57.7214 22.6484 57.8047C22.8359 57.8828 22.9974 57.9922 23.1328 58.1328C23.2734 58.2682 23.3828 58.4297 23.4609 58.6172C23.5443 58.8047 23.5859 59.0052 23.5859 59.2188V64.4609ZM17.9219 59.2188V64.4609H22.0547V59.2188H17.9219ZM33.5156 64.4609C33.5156 64.6745 33.474 64.875 33.3906 65.0625C33.3125 65.25 33.2031 65.4141 33.0625 65.5547C32.9271 65.6901 32.7656 65.7995 32.5781 65.8828C32.3906 65.9609 32.1901 66 31.9766 66H27.6875C27.4792 66 27.2812 65.9609 27.0938 65.8828C26.9062 65.7995 26.7422 65.6901 26.6016 65.5547C26.4661 65.4141 26.3568 65.25 26.2734 65.0625C26.1953 64.875 26.1562 64.6745 26.1562 64.4609V54.4766H27.6875V59.1484C27.6979 58.9453 27.7448 58.7552 27.8281 58.5781C27.9115 58.3958 28.0208 58.2396 28.1562 58.1094C28.2969 57.974 28.4583 57.8698 28.6406 57.7969C28.8229 57.7188 29.0182 57.6797 29.2266 57.6797H31.9766C32.1901 57.6797 32.3906 57.7214 32.5781 57.8047C32.7656 57.8828 32.9271 57.9922 33.0625 58.1328C33.2031 58.2682 33.3125 58.4297 33.3906 58.6172C33.474 58.8047 33.5156 59.0052 33.5156 59.2188V64.4609ZM27.6875 59.2188V64.4609H31.9766V59.2188H27.6875ZM37.6953 57.6797V66H36.1562V57.6797H37.6953ZM36.0781 54.4766H37.7734V56.0781H36.0781V54.4766ZM41.875 54.4766V66H40.3438V54.4766H41.875ZM46.0547 57.6797V66H44.5156V57.6797H46.0547ZM44.4375 54.4766H46.1328V56.0781H44.4375V54.4766ZM48.2188 57.6797H50.25V55.1172H51.7891V57.6797H54.5234V59.2188H51.7891V64.4609H54.5234V66H51.7891C51.5807 66 51.3828 65.9609 51.1953 65.8828C51.0078 65.7995 50.8438 65.6901 50.7031 65.5547C50.5625 65.4141 50.4505 65.25 50.3672 65.0625C50.2891 64.875 50.25 64.6745 50.25 64.4609V59.2188H48.2188V57.6797ZM57.6562 69.3594L59.3984 65.25L56.1328 57.6797H57.75L60.1797 63.4062L62.6094 57.6797H64.2266L59.1875 69.3594H57.6562ZM80.5625 66H80.0625C78.9896 66 78.237 65.6901 77.8047 65.0703C77.362 65.6901 76.612 66 75.5547 66H73.1875C71.3698 66 70.4609 65.0938 70.4609 63.2812V62.7188C70.4609 62.0208 70.5859 61.4609 70.8359 61.0391C71.0859 60.6172 71.4479 60.3359 71.9219 60.1953C71.5 59.9974 71.1771 59.6953 70.9531 59.2891C70.7344 58.8776 70.625 58.3568 70.625 57.7266V57.5234C70.625 55.7057 71.5312 54.7969 73.3438 54.7969H75.7109C76.6328 54.7969 77.3151 55.0208 77.7578 55.4688C78.2057 55.9167 78.4297 56.6016 78.4297 57.5234V58.1953H76.8672V57.6016C76.8672 57.1745 76.7734 56.862 76.5859 56.6641C76.3984 56.4661 76.0911 56.3672 75.6641 56.3672H73.3906C72.9688 56.3672 72.6641 56.4661 72.4766 56.6641C72.2891 56.862 72.1953 57.1745 72.1953 57.6016V58.3359C72.1953 58.7422 72.2786 59.0443 72.4453 59.2422C72.6172 59.4349 72.8958 59.5391 73.2812 59.5547H80.5625V61.1172H78.5938V63.2031C78.5938 63.625 78.6875 63.9349 78.875 64.1328C79.0625 64.3307 79.3672 64.4297 79.7891 64.4297H80.5625V66ZM75.8203 64.4297C76.2474 64.4297 76.5547 64.3307 76.7422 64.1328C76.9297 63.9349 77.0234 63.625 77.0234 63.2031V61.1172H73.2344C72.8073 61.1172 72.5 61.2135 72.3125 61.4062C72.125 61.599 72.0312 61.9089 72.0312 62.3359V63.2031C72.0312 63.625 72.125 63.9349 72.3125 64.1328C72.5 64.3307 72.8073 64.4297 73.2344 64.4297H75.8203ZM92.5547 54.7969L96.875 66H95.2734L94.2812 63.4219H89.2266L88.2344 66H86.6328L90.9531 54.7969H92.5547ZM89.8359 61.8203H93.6641L91.7578 56.8828L89.8359 61.8203ZM100.398 54.7969V66H98.7969V54.7969H100.398ZM117.68 64.3984C117.68 64.6172 117.638 64.8255 117.555 65.0234C117.471 65.2161 117.357 65.3854 117.211 65.5312C117.065 65.6771 116.893 65.7917 116.695 65.875C116.503 65.9583 116.297 66 116.078 66H109.68C109.461 66 109.253 65.9583 109.055 65.875C108.862 65.7917 108.693 65.6771 108.547 65.5312C108.401 65.3854 108.286 65.2161 108.203 65.0234C108.12 64.8255 108.078 64.6172 108.078 64.3984V56.3984C108.078 56.1797 108.12 55.974 108.203 55.7812C108.286 55.5833 108.401 55.4141 108.547 55.2734C108.693 55.1276 108.862 55.013 109.055 54.9297C109.253 54.8411 109.461 54.7969 109.68 54.7969H116.078C116.297 54.7969 116.503 54.8411 116.695 54.9297C116.893 55.013 117.065 55.1276 117.211 55.2734C117.357 55.4141 117.471 55.5833 117.555 55.7812C117.638 55.974 117.68 56.1797 117.68 56.3984V64.3984ZM109.68 56.3984V64.3984H116.078V56.3984H109.68ZM127.766 64.4609C127.766 64.6745 127.724 64.875 127.641 65.0625C127.562 65.25 127.453 65.4141 127.312 65.5547C127.177 65.6901 127.016 65.7995 126.828 65.8828C126.641 65.9609 126.44 66 126.227 66H121.938V69.3594H120.406V57.6797H121.938V59.0859C121.953 58.888 122.005 58.7057 122.094 58.5391C122.182 58.3672 122.294 58.2188 122.43 58.0938C122.565 57.9635 122.721 57.862 122.898 57.7891C123.081 57.7161 123.273 57.6797 123.477 57.6797H126.227C126.44 57.6797 126.641 57.7214 126.828 57.8047C127.016 57.8828 127.177 57.9922 127.312 58.1328C127.453 58.2682 127.562 58.4297 127.641 58.6172C127.724 58.8047 127.766 59.0052 127.766 59.2188V64.4609ZM126.227 64.4609V59.2188H121.938V64.4609H126.227ZM129.844 57.6797H131.875V55.1172H133.414V57.6797H136.148V59.2188H133.414V64.4609H136.148V66H133.414C133.206 66 133.008 65.9609 132.82 65.8828C132.633 65.7995 132.469 65.6901 132.328 65.5547C132.188 65.4141 132.076 65.25 131.992 65.0625C131.914 64.875 131.875 64.6745 131.875 64.4609V59.2188H129.844V57.6797ZM140.336 57.6797V66H138.797V57.6797H140.336ZM138.719 54.4766H140.414V56.0781H138.719V54.4766ZM149.578 59.2188V66H148.039V59.2188H144.516V66H142.984V57.6797H144.516V59.1484C144.526 58.9453 144.573 58.7552 144.656 58.5781C144.74 58.3958 144.849 58.2396 144.984 58.1094C145.125 57.974 145.286 57.8698 145.469 57.7969C145.651 57.7188 145.846 57.6797 146.055 57.6797H148.039C148.242 57.6797 148.435 57.7188 148.617 57.7969C148.799 57.8698 148.961 57.974 149.102 58.1094C149.242 58.2396 149.354 58.3958 149.438 58.5781C149.526 58.7552 149.573 58.9453 149.578 59.1484C149.589 58.9453 149.633 58.7552 149.711 58.5781C149.794 58.3958 149.904 58.2396 150.039 58.1094C150.18 57.974 150.341 57.8698 150.523 57.7969C150.706 57.7188 150.901 57.6797 151.109 57.6797H153.094C153.307 57.6797 153.508 57.7214 153.695 57.8047C153.883 57.8828 154.044 57.9922 154.18 58.1328C154.32 58.2682 154.43 58.4297 154.508 58.6172C154.591 58.8047 154.633 59.0052 154.633 59.2188V66H153.094V59.2188H149.578ZM158.82 57.6797V66H157.281V57.6797H158.82ZM157.203 54.4766H158.898V56.0781H157.203V54.4766ZM161.305 57.6797H168.188V58.0938L163.758 64.4609H168.188V66H161.148V65.5859L165.578 59.2188H161.305V57.6797ZM170.438 62.3672C170.438 62.1536 170.477 61.9557 170.555 61.7734C170.638 61.5859 170.747 61.4219 170.883 61.2812C171.023 61.1406 171.188 61.0312 171.375 60.9531C171.562 60.8698 171.76 60.8281 171.969 60.8281H175.938V59.2188H170.914V57.6797H175.938C176.151 57.6797 176.352 57.7214 176.539 57.8047C176.727 57.8828 176.888 57.9922 177.023 58.1328C177.164 58.2682 177.273 58.4297 177.352 58.6172C177.435 58.8047 177.477 59.0052 177.477 59.2188V66H175.938V64.5938C175.922 64.7865 175.87 64.9688 175.781 65.1406C175.693 65.3125 175.578 65.4635 175.438 65.5938C175.302 65.7188 175.146 65.8177 174.969 65.8906C174.792 65.9635 174.604 66 174.406 66H171.969C171.76 66 171.562 65.9609 171.375 65.8828C171.188 65.7995 171.023 65.6901 170.883 65.5547C170.747 65.4141 170.638 65.25 170.555 65.0625C170.477 64.875 170.438 64.6745 170.438 64.4609V62.3672ZM171.969 64.4609H175.938V62.3672H171.969V64.4609ZM179.562 57.6797H181.594V55.1172H183.133V57.6797H185.867V59.2188H183.133V64.4609H185.867V66H183.133C182.924 66 182.727 65.9609 182.539 65.8828C182.352 65.7995 182.188 65.6901 182.047 65.5547C181.906 65.4141 181.794 65.25 181.711 65.0625C181.633 64.875 181.594 64.6745 181.594 64.4609V59.2188H179.562V57.6797ZM190.055 57.6797V66H188.516V57.6797H190.055ZM188.438 54.4766H190.133V56.0781H188.438V54.4766ZM199.898 64.4609C199.898 64.6745 199.857 64.875 199.773 65.0625C199.695 65.25 199.586 65.4141 199.445 65.5547C199.31 65.6901 199.148 65.7995 198.961 65.8828C198.779 65.9609 198.581 66 198.367 66H194.234C194.026 66 193.828 65.9609 193.641 65.8828C193.453 65.7995 193.289 65.6901 193.148 65.5547C193.013 65.4141 192.904 65.25 192.82 65.0625C192.742 64.875 192.703 64.6745 192.703 64.4609V59.2188C192.703 59.0052 192.742 58.8047 192.82 58.6172C192.904 58.4297 193.013 58.2682 193.148 58.1328C193.289 57.9922 193.453 57.8828 193.641 57.8047C193.828 57.7214 194.026 57.6797 194.234 57.6797H198.367C198.581 57.6797 198.779 57.7214 198.961 57.8047C199.148 57.8828 199.31 57.9922 199.445 58.1328C199.586 58.2682 199.695 58.4297 199.773 58.6172C199.857 58.8047 199.898 59.0052 199.898 59.2188V64.4609ZM194.234 59.2188V64.4609H198.367V59.2188H194.234ZM209.828 66H208.289V59.2188H204V66H202.469V57.6797H204V59.1484C204.01 58.9453 204.057 58.7552 204.141 58.5781C204.224 58.3958 204.333 58.2396 204.469 58.1094C204.609 57.974 204.771 57.8698 204.953 57.7969C205.135 57.7188 205.331 57.6797 205.539 57.6797H208.289C208.503 57.6797 208.703 57.7214 208.891 57.8047C209.078 57.8828 209.24 57.9922 209.375 58.1328C209.516 58.2682 209.625 58.4297 209.703 58.6172C209.786 58.8047 209.828 59.0052 209.828 59.2188V66ZM217.344 66V54.7969H223.477C225.289 54.7969 226.195 55.7057 226.195 57.5234V59.1172C226.195 60.9349 225.289 61.8438 223.477 61.8438H218.945V66H217.344ZM218.945 60.2422H223.391C223.818 60.2422 224.125 60.1484 224.312 59.9609C224.5 59.7734 224.594 59.4661 224.594 59.0391V57.6016C224.594 57.1745 224.5 56.8672 224.312 56.6797C224.125 56.4922 223.818 56.3984 223.391 56.3984H218.945V60.2422ZM228.281 62.3672C228.281 62.1536 228.32 61.9557 228.398 61.7734C228.482 61.5859 228.591 61.4219 228.727 61.2812C228.867 61.1406 229.031 61.0312 229.219 60.9531C229.406 60.8698 229.604 60.8281 229.812 60.8281H233.781V59.2188H228.758V57.6797H233.781C233.995 57.6797 234.195 57.7214 234.383 57.8047C234.57 57.8828 234.732 57.9922 234.867 58.1328C235.008 58.2682 235.117 58.4297 235.195 58.6172C235.279 58.8047 235.32 59.0052 235.32 59.2188V66H233.781V64.5938C233.766 64.7865 233.714 64.9688 233.625 65.1406C233.536 65.3125 233.422 65.4635 233.281 65.5938C233.146 65.7188 232.99 65.8177 232.812 65.8906C232.635 65.9635 232.448 66 232.25 66H229.812C229.604 66 229.406 65.9609 229.219 65.8828C229.031 65.7995 228.867 65.6901 228.727 65.5547C228.591 65.4141 228.482 65.25 228.398 65.0625C228.32 64.875 228.281 64.6745 228.281 64.4609V62.3672ZM229.812 64.4609H233.781V62.3672H229.812V64.4609ZM239.422 59.2188V66H237.891V57.6797H239.422V59.1484C239.432 58.9453 239.479 58.7552 239.562 58.5781C239.646 58.3958 239.755 58.2396 239.891 58.1094C240.031 57.974 240.193 57.8698 240.375 57.7969C240.557 57.7188 240.753 57.6797 240.961 57.6797H242.594C242.807 57.6797 243.005 57.7214 243.188 57.8047C243.375 57.8828 243.539 57.9922 243.68 58.1328C243.82 58.2682 243.93 58.4297 244.008 58.6172C244.091 58.8047 244.133 59.0052 244.133 59.2188V60.625H242.594V59.2188H239.422ZM245.562 57.6797H247.594V55.1172H249.133V57.6797H251.867V59.2188H249.133V64.4609H251.867V66H249.133C248.924 66 248.727 65.9609 248.539 65.8828C248.352 65.7995 248.188 65.6901 248.047 65.5547C247.906 65.4141 247.794 65.25 247.711 65.0625C247.633 64.875 247.594 64.6745 247.594 64.4609V59.2188H245.562V57.6797ZM261.797 66H260.258V59.2188H255.969V66H254.438V57.6797H255.969V59.1484C255.979 58.9453 256.026 58.7552 256.109 58.5781C256.193 58.3958 256.302 58.2396 256.438 58.1094C256.578 57.974 256.74 57.8698 256.922 57.7969C257.104 57.7188 257.299 57.6797 257.508 57.6797H260.258C260.471 57.6797 260.672 57.7214 260.859 57.8047C261.047 57.8828 261.208 57.9922 261.344 58.1328C261.484 58.2682 261.594 58.4297 261.672 58.6172C261.755 58.8047 261.797 59.0052 261.797 59.2188V66ZM271.398 62.625H265.891V64.4609H271.398V66H265.891C265.682 66 265.484 65.9609 265.297 65.8828C265.109 65.7995 264.945 65.6901 264.805 65.5547C264.669 65.4141 264.56 65.25 264.477 65.0625C264.398 64.875 264.359 64.6745 264.359 64.4609V59.2188C264.359 59.0052 264.398 58.8047 264.477 58.6172C264.56 58.4297 264.669 58.2682 264.805 58.1328C264.945 57.9922 265.109 57.8828 265.297 57.8047C265.484 57.7214 265.682 57.6797 265.891 57.6797H269.859C270.073 57.6797 270.273 57.7214 270.461 57.8047C270.648 57.8828 270.81 57.9922 270.945 58.1328C271.086 58.2682 271.195 58.4297 271.273 58.6172C271.357 58.8047 271.398 59.0052 271.398 59.2188V62.625ZM265.891 59.2188V61.0859H269.859V59.2188H265.891ZM275.5 59.2188V66H273.969V57.6797H275.5V59.1484C275.51 58.9453 275.557 58.7552 275.641 58.5781C275.724 58.3958 275.833 58.2396 275.969 58.1094C276.109 57.974 276.271 57.8698 276.453 57.7969C276.635 57.7188 276.831 57.6797 277.039 57.6797H278.672C278.885 57.6797 279.083 57.7214 279.266 57.8047C279.453 57.8828 279.617 57.9922 279.758 58.1328C279.898 58.2682 280.008 58.4297 280.086 58.6172C280.169 58.8047 280.211 59.0052 280.211 59.2188V60.625H278.672V59.2188H275.5ZM287.148 64.4609V62.5312H283.5C283.286 62.5312 283.086 62.4922 282.898 62.4141C282.711 62.3307 282.547 62.2214 282.406 62.0859C282.271 61.9453 282.161 61.7812 282.078 61.5938C282 61.4062 281.961 61.2057 281.961 60.9922V59.2188C281.961 59.0052 282 58.8047 282.078 58.6172C282.161 58.4297 282.271 58.2682 282.406 58.1328C282.547 57.9922 282.711 57.8828 282.898 57.8047C283.086 57.7214 283.286 57.6797 283.5 57.6797H288.367V59.2188H283.5V60.9922H287.148C287.362 60.9922 287.56 61.0339 287.742 61.1172C287.93 61.1953 288.094 61.3047 288.234 61.4453C288.375 61.5807 288.484 61.7422 288.562 61.9297C288.646 62.1172 288.688 62.3177 288.688 62.5312V64.4609C288.688 64.6745 288.646 64.875 288.562 65.0625C288.484 65.25 288.375 65.4141 288.234 65.5547C288.094 65.6901 287.93 65.7995 287.742 65.8828C287.56 65.9609 287.362 66 287.148 66H281.961V64.4609H287.148Z" fill="#1CE9E0"/>
</svg>
