<svg width="64" height="64" viewBox="0 0 64 64" fill="none" xmlns="http://www.w3.org/2000/svg">
<circle cx="32" cy="32" r="32" fill="#0E1918"/>
<path d="M22.3725 18.213L26.1314 25.4534H23.7821L24.3303 27.4464L20.5713 26.2102L21.7982 29.4646L19.3967 28.0519L17.6738 24.9236L17.9349 20.8619L18.5091 14L21.7982 19.1717L22.3725 18.213Z" fill="#E7FBF8"/>
<path d="M41.6368 18.213L37.8779 25.4534H40.2272L39.679 27.4464L43.4379 26.2102L42.2111 29.4646L44.6126 28.0519L46.3354 24.9236L46.0744 20.8619L45.5001 14L42.2111 19.1717L41.6368 18.213Z" fill="#E7FBF8"/>
<path d="M27.4775 43.419L26.5378 46.0679L24.9194 44.2515L25.8069 46.6229L21.3954 42.9901L17.7409 41.5269L20.3251 41.1989L18.524 40.3664L15 39.6096L17.1666 38.4743L19.777 38.0202L18.1846 36.885H22.4395L20.9777 34.5388L26.0302 35.3795L27.1121 34.8668L29.2787 39.6096L29.8269 42.5108L28.7566 41.1989L27.4775 43.419Z" fill="#E7FBF8"/>
<path d="M36.5225 43.419L37.4622 46.0679L39.0806 44.2515L38.1931 46.6229L42.6046 42.9901L46.2591 41.5269L43.6749 41.1989L45.476 40.3664L49 39.6096L46.8334 38.4743L44.223 38.0202L45.8154 36.885H41.5605L43.0223 34.5388L37.9698 35.3795L36.8879 34.8668L34.7213 39.6096L34.1731 42.5108L35.2434 41.1989L36.5225 43.419Z" fill="#E7FBF8"/>
<path d="M29.5767 48.6378C29.6185 48.7387 31.3344 49.6133 32.0566 50.0001L34.5364 48.6378L35.0063 47.3764L34.5364 45.4591L32.0566 44.4752L29.5767 45.4591L29.0024 47.3764C29.1765 47.7548 29.535 48.5369 29.5767 48.6378Z" fill="#E7FBF8"/>
</svg>
