<svg width="135" height="74" viewBox="0 0 135 74" fill="none" xmlns="http://www.w3.org/2000/svg">
<path d="M17.0016 30.8241L21.3503 6.46805C25.4955 6.46805 26.8029 6.9207 26.9917 8.76829C26.9917 8.76829 29.7724 7.73579 31.1748 5.63881C25.702 3.11335 20.2031 2.99945 20.2031 2.99945L16.9944 6.89141L17.0016 6.89092L13.7929 2.99884C13.7929 2.99884 8.29385 3.11286 2.82178 5.63832C4.22302 7.7353 7.00478 8.7678 7.00478 8.7678C7.19466 6.92009 8.50053 6.46744 12.6178 6.46451L17.0016 30.8241Z" fill="#E7FBF8"/>
<path d="M17 1.87505C21.424 1.84136 26.4877 2.55659 31.6715 4.80653C32.3643 3.56467 32.5424 3.01583 32.5424 3.01583C26.8758 0.783225 21.5691 0.0191656 16.9994 0C12.4299 0.0191656 7.1234 0.783347 1.45752 3.01583C1.45752 3.01583 1.71028 3.69188 2.32785 4.80653C7.51064 2.55659 12.5752 1.84136 16.9994 1.87505H17Z" fill="#E7FBF8"/>
<path d="M29.104 41.3796V44.0545H29.9653V42.2736H33.1004V44.0545H33.9612V41.3843L29.104 41.3796ZM29.8694 40.5144H33.1815C33.6416 40.4233 33.9837 40.019 34.0802 39.6279H28.9708C29.0663 40.0191 29.4135 40.4233 29.8694 40.5144ZM26.4952 44.0562C26.9295 43.8729 27.1631 43.5557 27.2526 43.1846H23.3892L23.3916 39.6301L22.5256 39.6325V44.0562H26.4952ZM16.0853 40.5024H19.1443C19.6054 40.369 19.9927 40.0191 20.087 39.6313H15.2279V42.2455H19.2049V43.1629L16.0853 43.1653C15.5965 43.3011 15.1819 43.628 14.9751 44.0598L15.2279 44.0551H20.0595V41.3763H16.0853V40.5024ZM8.53391 40.5108H11.845C12.3056 40.4194 12.648 40.0155 12.744 39.624H7.63489C7.73026 40.0155 8.07766 40.4194 8.53391 40.5108ZM8.53391 42.2592H11.845C12.3056 42.1687 12.648 41.7644 12.744 41.3727H7.63489C7.73026 41.7645 8.07766 42.1687 8.53391 42.2592ZM8.53391 44.0557H11.845C12.3056 43.9645 12.648 43.5603 12.744 43.1691H7.63489C7.73026 43.5605 8.07766 43.9645 8.53391 44.0557ZM-0.0800781 39.6347C0.0194587 40.0213 0.35558 40.4165 0.816734 40.5155H2.2105L2.28159 40.5434V44.0458H3.15193V40.5434L3.23099 40.5155H4.62598C5.09228 40.3958 5.42117 40.0213 5.51899 39.6347V39.6262H-0.0800781V39.6347Z" fill="#E7FBF8"/>
<path d="M7.67188 66L3.49219 57.7891V66H1.89062V54.7969H3.64062L7.90625 63.2344L12.1797 54.7969H13.9219V66H12.3281V57.7891L8.14844 66H7.67188ZM23.8516 64.4609C23.8516 64.6745 23.8099 64.875 23.7266 65.0625C23.6484 65.25 23.5391 65.4141 23.3984 65.5547C23.263 65.6901 23.1016 65.7995 22.9141 65.8828C22.7318 65.9609 22.5339 66 22.3203 66H18.1875C17.9792 66 17.7812 65.9609 17.5938 65.8828C17.4062 65.7995 17.2422 65.6901 17.1016 65.5547C16.9661 65.4141 16.8568 65.25 16.7734 65.0625C16.6953 64.875 16.6562 64.6745 16.6562 64.4609V59.2188C16.6562 59.0052 16.6953 58.8047 16.7734 58.6172C16.8568 58.4297 16.9661 58.2682 17.1016 58.1328C17.2422 57.9922 17.4062 57.8828 17.5938 57.8047C17.7812 57.7214 17.9792 57.6797 18.1875 57.6797H22.3203C22.5339 57.6797 22.7318 57.7214 22.9141 57.8047C23.1016 57.8828 23.263 57.9922 23.3984 58.1328C23.5391 58.2682 23.6484 58.4297 23.7266 58.6172C23.8099 58.8047 23.8516 59.0052 23.8516 59.2188V64.4609ZM18.1875 59.2188V64.4609H22.3203V59.2188H18.1875ZM33.7812 64.4609C33.7812 64.6745 33.7396 64.875 33.6562 65.0625C33.5781 65.25 33.4688 65.4141 33.3281 65.5547C33.1927 65.6901 33.0312 65.7995 32.8438 65.8828C32.6562 65.9609 32.4557 66 32.2422 66H27.9531C27.7448 66 27.5469 65.9609 27.3594 65.8828C27.1719 65.7995 27.0078 65.6901 26.8672 65.5547C26.7318 65.4141 26.6224 65.25 26.5391 65.0625C26.4609 64.875 26.4219 64.6745 26.4219 64.4609V54.4766H27.9531V59.1484C27.9635 58.9453 28.0104 58.7552 28.0938 58.5781C28.1771 58.3958 28.2865 58.2396 28.4219 58.1094C28.5625 57.974 28.724 57.8698 28.9062 57.7969C29.0885 57.7188 29.2839 57.6797 29.4922 57.6797H32.2422C32.4557 57.6797 32.6562 57.7214 32.8438 57.8047C33.0312 57.8828 33.1927 57.9922 33.3281 58.1328C33.4688 58.2682 33.5781 58.4297 33.6562 58.6172C33.7396 58.8047 33.7812 59.0052 33.7812 59.2188V64.4609ZM27.9531 59.2188V64.4609H32.2422V59.2188H27.9531ZM37.9609 57.6797V66H36.4219V57.6797H37.9609ZM36.3438 54.4766H38.0391V56.0781H36.3438V54.4766ZM42.1406 54.4766V66H40.6094V54.4766H42.1406ZM46.3203 57.6797V66H44.7812V57.6797H46.3203ZM44.7031 54.4766H46.3984V56.0781H44.7031V54.4766ZM48.4844 57.6797H50.5156V55.1172H52.0547V57.6797H54.7891V59.2188H52.0547V64.4609H54.7891V66H52.0547C51.8464 66 51.6484 65.9609 51.4609 65.8828C51.2734 65.7995 51.1094 65.6901 50.9688 65.5547C50.8281 65.4141 50.7161 65.25 50.6328 65.0625C50.5547 64.875 50.5156 64.6745 50.5156 64.4609V59.2188H48.4844V57.6797ZM57.9219 69.3594L59.6641 65.25L56.3984 57.6797H58.0156L60.4453 63.4062L62.875 57.6797H64.4922L59.4531 69.3594H57.9219ZM71.0469 66V54.7969H77.1797C78.9922 54.7969 79.8984 55.7057 79.8984 57.5234V59.1172C79.8984 60.9349 78.9922 61.8438 77.1797 61.8438H72.6484V66H71.0469ZM72.6484 60.2422H77.0938C77.5208 60.2422 77.8281 60.1484 78.0156 59.9609C78.2031 59.7734 78.2969 59.4661 78.2969 59.0391V57.6016C78.2969 57.1745 78.2031 56.8672 78.0156 56.6797C77.8281 56.4922 77.5208 56.3984 77.0938 56.3984H72.6484V60.2422ZM81.9844 62.3672C81.9844 62.1536 82.0234 61.9557 82.1016 61.7734C82.1849 61.5859 82.2943 61.4219 82.4297 61.2812C82.5703 61.1406 82.7344 61.0312 82.9219 60.9531C83.1094 60.8698 83.3073 60.8281 83.5156 60.8281H87.4844V59.2188H82.4609V57.6797H87.4844C87.6979 57.6797 87.8984 57.7214 88.0859 57.8047C88.2734 57.8828 88.4349 57.9922 88.5703 58.1328C88.7109 58.2682 88.8203 58.4297 88.8984 58.6172C88.9818 58.8047 89.0234 59.0052 89.0234 59.2188V66H87.4844V64.5938C87.4688 64.7865 87.4167 64.9688 87.3281 65.1406C87.2396 65.3125 87.125 65.4635 86.9844 65.5938C86.849 65.7188 86.6927 65.8177 86.5156 65.8906C86.3385 65.9635 86.151 66 85.9531 66H83.5156C83.3073 66 83.1094 65.9609 82.9219 65.8828C82.7344 65.7995 82.5703 65.6901 82.4297 65.5547C82.2943 65.4141 82.1849 65.25 82.1016 65.0625C82.0234 64.875 81.9844 64.6745 81.9844 64.4609V62.3672ZM83.5156 64.4609H87.4844V62.3672H83.5156V64.4609ZM93.125 59.2188V66H91.5938V57.6797H93.125V59.1484C93.1354 58.9453 93.1823 58.7552 93.2656 58.5781C93.349 58.3958 93.4583 58.2396 93.5938 58.1094C93.7344 57.974 93.8958 57.8698 94.0781 57.7969C94.2604 57.7188 94.4557 57.6797 94.6641 57.6797H96.2969C96.5104 57.6797 96.7083 57.7214 96.8906 57.8047C97.0781 57.8828 97.2422 57.9922 97.3828 58.1328C97.5234 58.2682 97.6328 58.4297 97.7109 58.6172C97.7943 58.8047 97.8359 59.0052 97.8359 59.2188V60.625H96.2969V59.2188H93.125ZM99.2656 57.6797H101.297V55.1172H102.836V57.6797H105.57V59.2188H102.836V64.4609H105.57V66H102.836C102.628 66 102.43 65.9609 102.242 65.8828C102.055 65.7995 101.891 65.6901 101.75 65.5547C101.609 65.4141 101.497 65.25 101.414 65.0625C101.336 64.875 101.297 64.6745 101.297 64.4609V59.2188H99.2656V57.6797ZM115.5 66H113.961V59.2188H109.672V66H108.141V57.6797H109.672V59.1484C109.682 58.9453 109.729 58.7552 109.812 58.5781C109.896 58.3958 110.005 58.2396 110.141 58.1094C110.281 57.974 110.443 57.8698 110.625 57.7969C110.807 57.7188 111.003 57.6797 111.211 57.6797H113.961C114.174 57.6797 114.375 57.7214 114.562 57.8047C114.75 57.8828 114.911 57.9922 115.047 58.1328C115.188 58.2682 115.297 58.4297 115.375 58.6172C115.458 58.8047 115.5 59.0052 115.5 59.2188V66ZM125.102 62.625H119.594V64.4609H125.102V66H119.594C119.385 66 119.188 65.9609 119 65.8828C118.812 65.7995 118.648 65.6901 118.508 65.5547C118.372 65.4141 118.263 65.25 118.18 65.0625C118.102 64.875 118.062 64.6745 118.062 64.4609V59.2188C118.062 59.0052 118.102 58.8047 118.18 58.6172C118.263 58.4297 118.372 58.2682 118.508 58.1328C118.648 57.9922 118.812 57.8828 119 57.8047C119.188 57.7214 119.385 57.6797 119.594 57.6797H123.562C123.776 57.6797 123.977 57.7214 124.164 57.8047C124.352 57.8828 124.513 57.9922 124.648 58.1328C124.789 58.2682 124.898 58.4297 124.977 58.6172C125.06 58.8047 125.102 59.0052 125.102 59.2188V62.625ZM119.594 59.2188V61.0859H123.562V59.2188H119.594ZM129.203 59.2188V66H127.672V57.6797H129.203V59.1484C129.214 58.9453 129.26 58.7552 129.344 58.5781C129.427 58.3958 129.536 58.2396 129.672 58.1094C129.812 57.974 129.974 57.8698 130.156 57.7969C130.339 57.7188 130.534 57.6797 130.742 57.6797H132.375C132.589 57.6797 132.786 57.7214 132.969 57.8047C133.156 57.8828 133.32 57.9922 133.461 58.1328C133.602 58.2682 133.711 58.4297 133.789 58.6172C133.872 58.8047 133.914 59.0052 133.914 59.2188V60.625H132.375V59.2188H129.203Z" fill="#1CE9E0"/>
</svg>
