<svg width="238" height="74" viewBox="0 0 238 74" fill="none" xmlns="http://www.w3.org/2000/svg">
<g clip-path="url(#clip0_415_171)">
<path d="M10.6494 20.1548V23.7677H0V20.1548H10.6494ZM2.4177 16H7.32219V32.1677C7.32219 32.6119 7.39127 32.9581 7.52942 33.2065C7.66757 33.4473 7.85945 33.6167 8.10506 33.7145C8.35835 33.8123 8.65001 33.8613 8.98004 33.8613C9.21026 33.8613 9.44058 33.8425 9.6708 33.8048C9.90112 33.7597 10.0776 33.7258 10.2004 33.7032L10.9718 37.2823C10.7262 37.3575 10.3808 37.4441 9.93564 37.5419C9.49041 37.6473 8.94934 37.7113 8.31229 37.7339C7.13031 37.779 6.09415 37.6248 5.20382 37.271C4.32117 36.9172 3.63424 36.3677 3.14302 35.6226C2.6518 34.8774 2.41003 33.9365 2.4177 32.8V16Z" fill="#E7FBF8"/>
<path d="M18.8867 37.8241C17.7584 37.8241 16.753 37.6322 15.8703 37.2483C14.9877 36.8569 14.2893 36.2811 13.775 35.5209C13.2685 34.7531 13.0151 33.7973 13.0151 32.6531C13.0151 31.6897 13.1955 30.8806 13.5563 30.2257C13.917 29.5709 14.4083 29.044 15.0299 28.6451C15.6516 28.2461 16.3578 27.9451 17.1483 27.7419C17.9465 27.5386 18.7832 27.3957 19.6581 27.3128C20.6866 27.2074 21.5155 27.1096 22.1448 27.0193C22.7743 26.9215 23.2309 26.7784 23.515 26.5902C23.7989 26.4021 23.9409 26.1235 23.9409 25.7548V25.687C23.9409 24.972 23.7107 24.4187 23.2501 24.0273C22.7973 23.6359 22.1525 23.4402 21.316 23.4402C20.4333 23.4402 19.731 23.6322 19.2091 24.0161C18.6872 24.3924 18.3418 24.8666 18.173 25.4386L13.6369 25.0773C13.8671 24.0236 14.32 23.1128 14.9954 22.3451C15.6708 21.5698 16.542 20.9752 17.6089 20.5612C18.6833 20.1397 19.9268 19.929 21.339 19.929C22.3214 19.929 23.2616 20.0419 24.1596 20.2677C25.0653 20.4935 25.8674 20.8435 26.5659 21.3177C27.2719 21.7919 27.8284 22.4015 28.2352 23.1467C28.642 23.8843 28.8454 24.7687 28.8454 25.7999V37.4967H24.1942V35.0919H24.056C23.772 35.6338 23.3921 36.1118 22.9163 36.5257C22.4404 36.9322 21.8686 37.2521 21.2008 37.4854C20.5331 37.7112 19.7617 37.8241 18.8867 37.8241ZM20.2913 34.5048C21.0128 34.5048 21.6498 34.3655 22.2025 34.087C22.7551 33.801 23.1887 33.4171 23.5034 32.9354C23.8181 32.4537 23.9754 31.908 23.9754 31.2983V29.458C23.8219 29.5558 23.6108 29.6461 23.3423 29.729C23.0812 29.8042 22.7858 29.8757 22.4557 29.9435C22.1257 30.0037 21.7957 30.0602 21.4656 30.1128C21.1356 30.158 20.8363 30.1994 20.5676 30.237C19.992 30.3198 19.4892 30.4515 19.0594 30.6322C18.6296 30.8128 18.2957 31.0574 18.0578 31.3661C17.8199 31.6671 17.7009 32.0435 17.7009 32.4951C17.7009 33.1499 17.9427 33.6505 18.4262 33.9967C18.9174 34.3354 19.5392 34.5048 20.2913 34.5048Z" fill="#E7FBF8"/>
<path d="M32.6514 43.9999V20.1548H37.4868V23.0677H37.7055C37.9204 22.601 38.2313 22.1268 38.638 21.6451C39.0525 21.1558 39.5898 20.7494 40.2499 20.4257C40.9176 20.0945 41.7466 19.929 42.7367 19.929C44.0261 19.929 45.2158 20.2601 46.3057 20.9225C47.3955 21.5773 48.2667 22.5671 48.919 23.8919C49.5715 25.209 49.8977 26.8612 49.8977 28.8483C49.8977 30.7827 49.5791 32.4161 48.9421 33.7483C48.3127 35.0731 47.4531 36.0779 46.3632 36.7628C45.281 37.4402 44.0683 37.779 42.7252 37.779C41.7734 37.779 40.9637 37.6247 40.2959 37.3161C39.6358 37.0074 39.0948 36.6198 38.6726 36.1531C38.2504 35.679 37.9281 35.201 37.7055 34.7193H37.5559V43.9999H32.6514ZM37.4522 28.8257C37.4522 29.8569 37.5981 30.7564 37.8897 31.5241C38.1814 32.2919 38.6035 32.8902 39.1561 33.3193C39.7088 33.7408 40.3803 33.9515 41.1709 33.9515C41.9691 33.9515 42.6445 33.737 43.1971 33.308C43.7498 32.8715 44.168 32.2693 44.4521 31.5015C44.7437 30.7263 44.8895 29.8344 44.8895 28.8257C44.8895 27.8247 44.7475 26.944 44.4636 26.1838C44.1796 25.4235 43.7613 24.829 43.2086 24.3999C42.656 23.9709 41.9768 23.7564 41.1709 23.7564C40.3726 23.7564 39.6973 23.9634 39.1446 24.3773C38.5997 24.7913 38.1814 25.3784 37.8897 26.1386C37.5981 26.8989 37.4522 27.7945 37.4522 28.8257Z" fill="#E7FBF8"/>
<path d="M67.8796 25.0999L63.3896 25.3709C63.3129 24.9945 63.1478 24.6558 62.8945 24.3548C62.6412 24.0462 62.3073 23.8015 61.8929 23.6209C61.4861 23.4327 60.9987 23.3386 60.4307 23.3386C59.6709 23.3386 59.03 23.4967 58.5081 23.8128C57.9862 24.1214 57.7252 24.5354 57.7252 25.0548C57.7252 25.4687 57.8941 25.8187 58.2318 26.1048C58.5696 26.3908 59.149 26.6203 59.9702 26.7935L63.1708 27.4257C64.8901 27.7719 66.1719 28.329 67.0161 29.0967C67.8604 29.8644 68.2826 30.8731 68.2826 32.1225C68.2826 33.259 67.941 34.2564 67.2579 35.1144C66.5825 35.9725 65.6538 36.6424 64.4718 37.1241C63.2975 37.5983 61.9428 37.8354 60.4077 37.8354C58.0668 37.8354 56.2017 37.3574 54.8125 36.4015C53.431 35.4381 52.6212 34.1284 52.3833 32.4725L57.2071 32.2241C57.353 32.9241 57.706 33.4586 58.2664 33.8273C58.8266 34.1886 59.5443 34.3693 60.4192 34.3693C61.2789 34.3693 61.9697 34.2074 62.4915 33.8838C63.0212 33.5526 63.2898 33.1273 63.2975 32.608C63.2898 32.1715 63.1018 31.8139 62.7334 31.5354C62.365 31.2494 61.797 31.0311 61.0295 30.8806L57.967 30.2822C56.24 29.9435 54.9545 29.3564 54.1102 28.5209C53.2736 27.6854 52.8553 26.6203 52.8553 25.3257C52.8553 24.2118 53.1623 23.2521 53.7763 22.4467C54.3981 21.6413 55.2691 21.0203 56.3897 20.5838C57.518 20.1472 58.8382 19.929 60.3502 19.929C62.5837 19.929 64.3413 20.3919 65.6231 21.3177C66.9126 22.2435 67.6647 23.5042 67.8796 25.0999Z" fill="#E7FBF8"/>
<path d="M74.8602 37.497L70.0479 20.155H75.0099L77.7499 31.8066H77.9111L80.7663 20.155H85.6363L88.5375 31.7389H88.6872L91.3811 20.155H96.3317L91.5306 37.497H86.3385L83.2991 26.5905H83.0804L80.041 37.497H74.8602Z" fill="#E7FBF8"/>
<path d="M103.99 37.8241C102.862 37.8241 101.856 37.6322 100.974 37.2483C100.091 36.8569 99.3925 36.2811 98.8779 35.5209C98.3714 34.7531 98.1187 33.7973 98.1187 32.6531C98.1187 31.6897 98.299 30.8806 98.6596 30.2257C99.0202 29.5709 99.5112 29.044 100.133 28.6451C100.755 28.2461 101.461 27.9451 102.251 27.7419C103.049 27.5386 103.887 27.3957 104.762 27.3128C105.79 27.2074 106.619 27.1096 107.248 27.0193C107.878 26.9215 108.334 26.7784 108.618 26.5902C108.902 26.4021 109.045 26.1235 109.045 25.7548V25.687C109.045 24.972 108.814 24.4187 108.353 24.0273C107.9 23.6359 107.256 23.4402 106.419 23.4402C105.536 23.4402 104.834 23.6322 104.312 24.0161C103.79 24.3924 103.445 24.8666 103.276 25.4386L98.7402 25.0773C98.9703 24.0236 99.4233 23.1128 100.098 22.3451C100.774 21.5698 101.645 20.9752 102.712 20.5612C103.787 20.1397 105.03 19.929 106.442 19.929C107.425 19.929 108.365 20.0419 109.263 20.2677C110.169 20.4935 110.971 20.8435 111.669 21.3177C112.375 21.7919 112.932 22.4015 113.338 23.1467C113.745 23.8843 113.949 24.7687 113.949 25.7999V37.4967H109.297V35.0919H109.16C108.875 35.6338 108.496 36.1118 108.02 36.5257C107.543 36.9322 106.972 37.2521 106.304 37.4854C105.636 37.7112 104.865 37.8241 103.99 37.8241ZM105.394 34.5048C106.116 34.5048 106.753 34.3655 107.306 34.087C107.859 33.801 108.292 33.4171 108.607 32.9354C108.921 32.4537 109.079 31.908 109.079 31.2983V29.458C108.925 29.5558 108.714 29.6461 108.446 29.729C108.185 29.8042 107.889 29.8757 107.559 29.9435C107.229 30.0037 106.899 30.0602 106.569 30.1128C106.239 30.158 105.94 30.1994 105.67 30.237C105.095 30.3198 104.592 30.4515 104.163 30.6322C103.732 30.8128 103.399 31.0574 103.161 31.3661C102.923 31.6671 102.804 32.0435 102.804 32.4951C102.804 33.1499 103.046 33.6505 103.53 33.9967C104.021 34.3354 104.642 34.5048 105.394 34.5048Z" fill="#E7FBF8"/>
<path d="M117.753 43.9999V20.1548H122.589V23.0677H122.807C123.023 22.601 123.334 22.1268 123.741 21.6451C124.155 21.1558 124.692 20.7494 125.352 20.4257C126.02 20.0945 126.849 19.929 127.839 19.929C129.129 19.929 130.318 20.2601 131.407 20.9225C132.497 21.5773 133.369 22.5671 134.021 23.8919C134.674 25.209 135 26.8612 135 28.8483C135 30.7827 134.681 32.4161 134.044 33.7483C133.415 35.0731 132.555 36.0779 131.465 36.7628C130.384 37.4402 129.17 37.779 127.828 37.779C126.875 37.779 126.066 37.6247 125.399 37.3161C124.738 37.0074 124.197 36.6198 123.775 36.1531C123.353 35.679 123.03 35.201 122.807 34.7193H122.658V43.9999H117.753ZM122.555 28.8257C122.555 29.8569 122.7 30.7564 122.992 31.5241C123.284 32.2919 123.706 32.8902 124.259 33.3193C124.811 33.7408 125.483 33.9515 126.273 33.9515C127.071 33.9515 127.747 33.737 128.3 33.308C128.852 32.8715 129.27 32.2693 129.555 31.5015C129.846 30.7263 129.992 29.8344 129.992 28.8257C129.992 27.8247 129.85 26.944 129.565 26.1838C129.282 25.4235 128.863 24.829 128.311 24.3999C127.758 23.9709 127.079 23.7564 126.273 23.7564C125.475 23.7564 124.8 23.9634 124.247 24.3773C123.702 24.7913 123.284 25.3784 122.992 26.1386C122.7 26.8989 122.555 27.7945 122.555 28.8257Z" fill="#E7FBF8"/>
</g>
<path d="M0.710938 54.7969H9.67188V56.3984H5.99219V66H4.39062V56.3984H0.710938V54.7969ZM17.5078 62.625H12V64.4609H17.5078V66H12C11.7917 66 11.5938 65.9609 11.4062 65.8828C11.2188 65.7995 11.0547 65.6901 10.9141 65.5547C10.7786 65.4141 10.6693 65.25 10.5859 65.0625C10.5078 64.875 10.4688 64.6745 10.4688 64.4609V59.2188C10.4688 59.0052 10.5078 58.8047 10.5859 58.6172C10.6693 58.4297 10.7786 58.2682 10.9141 58.1328C11.0547 57.9922 11.2188 57.8828 11.4062 57.8047C11.5938 57.7214 11.7917 57.6797 12 57.6797H15.9688C16.1823 57.6797 16.3828 57.7214 16.5703 57.8047C16.7578 57.8828 16.9193 57.9922 17.0547 58.1328C17.1953 58.2682 17.3047 58.4297 17.3828 58.6172C17.4661 58.8047 17.5078 59.0052 17.5078 59.2188V62.625ZM12 59.2188V61.0859H15.9688V59.2188H12ZM21.6094 54.4766V66H20.0781V54.4766H21.6094ZM31.2109 62.625H25.7031V64.4609H31.2109V66H25.7031C25.4948 66 25.2969 65.9609 25.1094 65.8828C24.9219 65.7995 24.7578 65.6901 24.6172 65.5547C24.4818 65.4141 24.3724 65.25 24.2891 65.0625C24.2109 64.875 24.1719 64.6745 24.1719 64.4609V59.2188C24.1719 59.0052 24.2109 58.8047 24.2891 58.6172C24.3724 58.4297 24.4818 58.2682 24.6172 58.1328C24.7578 57.9922 24.9219 57.8828 25.1094 57.8047C25.2969 57.7214 25.4948 57.6797 25.7031 57.6797H29.6719C29.8854 57.6797 30.0859 57.7214 30.2734 57.8047C30.4609 57.8828 30.6224 57.9922 30.7578 58.1328C30.8984 58.2682 31.0078 58.4297 31.0859 58.6172C31.1693 58.8047 31.2109 59.0052 31.2109 59.2188V62.625ZM25.7031 59.2188V61.0859H29.6719V59.2188H25.7031ZM33.7812 59.2188C33.7812 59.0052 33.8203 58.8047 33.8984 58.6172C33.9818 58.4297 34.0911 58.2682 34.2266 58.1328C34.3672 57.9922 34.5312 57.8828 34.7188 57.8047C34.9062 57.7214 35.1042 57.6797 35.3125 57.6797H38.0703C38.2734 57.6797 38.4661 57.7188 38.6484 57.7969C38.8307 57.8698 38.9896 57.974 39.125 58.1094C39.2656 58.2396 39.3776 58.3958 39.4609 58.5781C39.5495 58.7552 39.5964 58.9453 39.6016 59.1484V57.6797H41.1406V67.8203C41.1406 68.0339 41.099 68.2344 41.0156 68.4219C40.9375 68.6094 40.8281 68.7708 40.6875 68.9062C40.5521 69.0469 40.3906 69.1562 40.2031 69.2344C40.0156 69.3177 39.8151 69.3594 39.6016 69.3594H34.7422V67.8203H39.6016V65.6797H35.3125C35.1042 65.6797 34.9062 65.6406 34.7188 65.5625C34.5312 65.4792 34.3672 65.3698 34.2266 65.2344C34.0911 65.0938 33.9818 64.9297 33.8984 64.7422C33.8203 64.5547 33.7812 64.3542 33.7812 64.1406V59.2188ZM39.6016 64.1406V59.2188H35.3125V64.1406H39.6016ZM45.2344 59.2188V66H43.7031V57.6797H45.2344V59.1484C45.2448 58.9453 45.2917 58.7552 45.375 58.5781C45.4583 58.3958 45.5677 58.2396 45.7031 58.1094C45.8438 57.974 46.0052 57.8698 46.1875 57.7969C46.3698 57.7188 46.5651 57.6797 46.7734 57.6797H48.4062C48.6198 57.6797 48.8177 57.7214 49 57.8047C49.1875 57.8828 49.3516 57.9922 49.4922 58.1328C49.6328 58.2682 49.7422 58.4297 49.8203 58.6172C49.9036 58.8047 49.9453 59.0052 49.9453 59.2188V60.625H48.4062V59.2188H45.2344ZM51.8594 62.3672C51.8594 62.1536 51.8984 61.9557 51.9766 61.7734C52.0599 61.5859 52.1693 61.4219 52.3047 61.2812C52.4453 61.1406 52.6094 61.0312 52.7969 60.9531C52.9844 60.8698 53.1823 60.8281 53.3906 60.8281H57.3594V59.2188H52.3359V57.6797H57.3594C57.5729 57.6797 57.7734 57.7214 57.9609 57.8047C58.1484 57.8828 58.3099 57.9922 58.4453 58.1328C58.5859 58.2682 58.6953 58.4297 58.7734 58.6172C58.8568 58.8047 58.8984 59.0052 58.8984 59.2188V66H57.3594V64.5938C57.3438 64.7865 57.2917 64.9688 57.2031 65.1406C57.1146 65.3125 57 65.4635 56.8594 65.5938C56.724 65.7188 56.5677 65.8177 56.3906 65.8906C56.2135 65.9635 56.026 66 55.8281 66H53.3906C53.1823 66 52.9844 65.9609 52.7969 65.8828C52.6094 65.7995 52.4453 65.6901 52.3047 65.5547C52.1693 65.4141 52.0599 65.25 51.9766 65.0625C51.8984 64.875 51.8594 64.6745 51.8594 64.4609V62.3672ZM53.3906 64.4609H57.3594V62.3672H53.3906V64.4609ZM68.0625 59.2188V66H66.5234V59.2188H63V66H61.4688V57.6797H63V59.1484C63.0104 58.9453 63.0573 58.7552 63.1406 58.5781C63.224 58.3958 63.3333 58.2396 63.4688 58.1094C63.6094 57.974 63.7708 57.8698 63.9531 57.7969C64.1354 57.7188 64.3307 57.6797 64.5391 57.6797H66.5234C66.7266 57.6797 66.9193 57.7188 67.1016 57.7969C67.2839 57.8698 67.4453 57.974 67.5859 58.1094C67.7266 58.2396 67.8385 58.3958 67.9219 58.5781C68.0104 58.7552 68.0573 58.9453 68.0625 59.1484C68.0729 58.9453 68.1172 58.7552 68.1953 58.5781C68.2786 58.3958 68.388 58.2396 68.5234 58.1094C68.6641 57.974 68.8255 57.8698 69.0078 57.7969C69.1901 57.7188 69.3854 57.6797 69.5938 57.6797H71.5781C71.7917 57.6797 71.9922 57.7214 72.1797 57.8047C72.3672 57.8828 72.5286 57.9922 72.6641 58.1328C72.8047 58.2682 72.9141 58.4297 72.9922 58.6172C73.0755 58.8047 73.1172 59.0052 73.1172 59.2188V66H71.5781V59.2188H68.0625ZM80.6406 54.7969H88.8047V56.3984H82.2422V59.6016H87.8438V61.2031H82.2422V64.3984H88.8047V66H80.6406V54.7969ZM92.5781 59.2188V64.4609H96.5469V63.0547H98.0859V64.4609C98.0859 64.6745 98.0443 64.875 97.9609 65.0625C97.8828 65.25 97.7734 65.4141 97.6328 65.5547C97.4974 65.6901 97.3359 65.7995 97.1484 65.8828C96.9609 65.9609 96.7604 66 96.5469 66H92.5781C92.3698 66 92.1719 65.9609 91.9844 65.8828C91.7969 65.7995 91.6328 65.6901 91.4922 65.5547C91.3568 65.4141 91.2474 65.25 91.1641 65.0625C91.0859 64.875 91.0469 64.6745 91.0469 64.4609V59.2188C91.0469 59.0052 91.0859 58.8047 91.1641 58.6172C91.2474 58.4297 91.3568 58.2682 91.4922 58.1328C91.6328 57.9922 91.7969 57.8828 91.9844 57.8047C92.1719 57.7214 92.3698 57.6797 92.5781 57.6797H96.5469C96.7604 57.6797 96.9609 57.7214 97.1484 57.8047C97.3359 57.8828 97.4974 57.9922 97.6328 58.1328C97.7734 58.2682 97.8828 58.4297 97.9609 58.6172C98.0443 58.8047 98.0859 59.0052 98.0859 59.2188V60.625H96.5469V59.2188H92.5781ZM107.852 64.4609C107.852 64.6745 107.81 64.875 107.727 65.0625C107.648 65.25 107.539 65.4141 107.398 65.5547C107.263 65.6901 107.102 65.7995 106.914 65.8828C106.732 65.9609 106.534 66 106.32 66H102.188C101.979 66 101.781 65.9609 101.594 65.8828C101.406 65.7995 101.242 65.6901 101.102 65.5547C100.966 65.4141 100.857 65.25 100.773 65.0625C100.695 64.875 100.656 64.6745 100.656 64.4609V59.2188C100.656 59.0052 100.695 58.8047 100.773 58.6172C100.857 58.4297 100.966 58.2682 101.102 58.1328C101.242 57.9922 101.406 57.8828 101.594 57.8047C101.781 57.7214 101.979 57.6797 102.188 57.6797H106.32C106.534 57.6797 106.732 57.7214 106.914 57.8047C107.102 57.8828 107.263 57.9922 107.398 58.1328C107.539 58.2682 107.648 58.4297 107.727 58.6172C107.81 58.8047 107.852 59.0052 107.852 59.2188V64.4609ZM102.188 59.2188V64.4609H106.32V59.2188H102.188ZM115.445 64.4609V62.5312H111.797C111.583 62.5312 111.383 62.4922 111.195 62.4141C111.008 62.3307 110.844 62.2214 110.703 62.0859C110.568 61.9453 110.458 61.7812 110.375 61.5938C110.297 61.4062 110.258 61.2057 110.258 60.9922V59.2188C110.258 59.0052 110.297 58.8047 110.375 58.6172C110.458 58.4297 110.568 58.2682 110.703 58.1328C110.844 57.9922 111.008 57.8828 111.195 57.8047C111.383 57.7214 111.583 57.6797 111.797 57.6797H116.664V59.2188H111.797V60.9922H115.445C115.659 60.9922 115.857 61.0339 116.039 61.1172C116.227 61.1953 116.391 61.3047 116.531 61.4453C116.672 61.5807 116.781 61.7422 116.859 61.9297C116.943 62.1172 116.984 62.3177 116.984 62.5312V64.4609C116.984 64.6745 116.943 64.875 116.859 65.0625C116.781 65.25 116.672 65.4141 116.531 65.5547C116.391 65.6901 116.227 65.7995 116.039 65.8828C115.857 65.9609 115.659 66 115.445 66H110.258V64.4609H115.445ZM119.953 69.3594L121.695 65.25L118.43 57.6797H120.047L122.477 63.4062L124.906 57.6797H126.523L121.484 69.3594H119.953ZM133.148 64.4609V62.5312H129.5C129.286 62.5312 129.086 62.4922 128.898 62.4141C128.711 62.3307 128.547 62.2214 128.406 62.0859C128.271 61.9453 128.161 61.7812 128.078 61.5938C128 61.4062 127.961 61.2057 127.961 60.9922V59.2188C127.961 59.0052 128 58.8047 128.078 58.6172C128.161 58.4297 128.271 58.2682 128.406 58.1328C128.547 57.9922 128.711 57.8828 128.898 57.8047C129.086 57.7214 129.286 57.6797 129.5 57.6797H134.367V59.2188H129.5V60.9922H133.148C133.362 60.9922 133.56 61.0339 133.742 61.1172C133.93 61.1953 134.094 61.3047 134.234 61.4453C134.375 61.5807 134.484 61.7422 134.562 61.9297C134.646 62.1172 134.688 62.3177 134.688 62.5312V64.4609C134.688 64.6745 134.646 64.875 134.562 65.0625C134.484 65.25 134.375 65.4141 134.234 65.5547C134.094 65.6901 133.93 65.7995 133.742 65.8828C133.56 65.9609 133.362 66 133.148 66H127.961V64.4609H133.148ZM136.609 57.6797H138.641V55.1172H140.18V57.6797H142.914V59.2188H140.18V64.4609H142.914V66H140.18C139.971 66 139.773 65.9609 139.586 65.8828C139.398 65.7995 139.234 65.6901 139.094 65.5547C138.953 65.4141 138.841 65.25 138.758 65.0625C138.68 64.875 138.641 64.6745 138.641 64.4609V59.2188H136.609V57.6797ZM152.523 62.625H147.016V64.4609H152.523V66H147.016C146.807 66 146.609 65.9609 146.422 65.8828C146.234 65.7995 146.07 65.6901 145.93 65.5547C145.794 65.4141 145.685 65.25 145.602 65.0625C145.523 64.875 145.484 64.6745 145.484 64.4609V59.2188C145.484 59.0052 145.523 58.8047 145.602 58.6172C145.685 58.4297 145.794 58.2682 145.93 58.1328C146.07 57.9922 146.234 57.8828 146.422 57.8047C146.609 57.7214 146.807 57.6797 147.016 57.6797H150.984C151.198 57.6797 151.398 57.7214 151.586 57.8047C151.773 57.8828 151.935 57.9922 152.07 58.1328C152.211 58.2682 152.32 58.4297 152.398 58.6172C152.482 58.8047 152.523 59.0052 152.523 59.2188V62.625ZM147.016 59.2188V61.0859H150.984V59.2188H147.016ZM161.688 59.2188V66H160.148V59.2188H156.625V66H155.094V57.6797H156.625V59.1484C156.635 58.9453 156.682 58.7552 156.766 58.5781C156.849 58.3958 156.958 58.2396 157.094 58.1094C157.234 57.974 157.396 57.8698 157.578 57.7969C157.76 57.7188 157.956 57.6797 158.164 57.6797H160.148C160.352 57.6797 160.544 57.7188 160.727 57.7969C160.909 57.8698 161.07 57.974 161.211 58.1094C161.352 58.2396 161.464 58.3958 161.547 58.5781C161.635 58.7552 161.682 58.9453 161.688 59.1484C161.698 58.9453 161.742 58.7552 161.82 58.5781C161.904 58.3958 162.013 58.2396 162.148 58.1094C162.289 57.974 162.451 57.8698 162.633 57.7969C162.815 57.7188 163.01 57.6797 163.219 57.6797H165.203C165.417 57.6797 165.617 57.7214 165.805 57.8047C165.992 57.8828 166.154 57.9922 166.289 58.1328C166.43 58.2682 166.539 58.4297 166.617 58.6172C166.701 58.8047 166.742 59.0052 166.742 59.2188V66H165.203V59.2188H161.688ZM174.266 66V54.7969H180.398C182.211 54.7969 183.117 55.7057 183.117 57.5234V59.1172C183.117 60.9349 182.211 61.8438 180.398 61.8438H175.867V66H174.266ZM175.867 60.2422H180.312C180.74 60.2422 181.047 60.1484 181.234 59.9609C181.422 59.7734 181.516 59.4661 181.516 59.0391V57.6016C181.516 57.1745 181.422 56.8672 181.234 56.6797C181.047 56.4922 180.74 56.3984 180.312 56.3984H175.867V60.2422ZM185.203 62.3672C185.203 62.1536 185.242 61.9557 185.32 61.7734C185.404 61.5859 185.513 61.4219 185.648 61.2812C185.789 61.1406 185.953 61.0312 186.141 60.9531C186.328 60.8698 186.526 60.8281 186.734 60.8281H190.703V59.2188H185.68V57.6797H190.703C190.917 57.6797 191.117 57.7214 191.305 57.8047C191.492 57.8828 191.654 57.9922 191.789 58.1328C191.93 58.2682 192.039 58.4297 192.117 58.6172C192.201 58.8047 192.242 59.0052 192.242 59.2188V66H190.703V64.5938C190.688 64.7865 190.635 64.9688 190.547 65.1406C190.458 65.3125 190.344 65.4635 190.203 65.5938C190.068 65.7188 189.911 65.8177 189.734 65.8906C189.557 65.9635 189.37 66 189.172 66H186.734C186.526 66 186.328 65.9609 186.141 65.8828C185.953 65.7995 185.789 65.6901 185.648 65.5547C185.513 65.4141 185.404 65.25 185.32 65.0625C185.242 64.875 185.203 64.6745 185.203 64.4609V62.3672ZM186.734 64.4609H190.703V62.3672H186.734V64.4609ZM196.344 59.2188V66H194.812V57.6797H196.344V59.1484C196.354 58.9453 196.401 58.7552 196.484 58.5781C196.568 58.3958 196.677 58.2396 196.812 58.1094C196.953 57.974 197.115 57.8698 197.297 57.7969C197.479 57.7188 197.674 57.6797 197.883 57.6797H199.516C199.729 57.6797 199.927 57.7214 200.109 57.8047C200.297 57.8828 200.461 57.9922 200.602 58.1328C200.742 58.2682 200.852 58.4297 200.93 58.6172C201.013 58.8047 201.055 59.0052 201.055 59.2188V60.625H199.516V59.2188H196.344ZM202.484 57.6797H204.516V55.1172H206.055V57.6797H208.789V59.2188H206.055V64.4609H208.789V66H206.055C205.846 66 205.648 65.9609 205.461 65.8828C205.273 65.7995 205.109 65.6901 204.969 65.5547C204.828 65.4141 204.716 65.25 204.633 65.0625C204.555 64.875 204.516 64.6745 204.516 64.4609V59.2188H202.484V57.6797ZM218.719 66H217.18V59.2188H212.891V66H211.359V57.6797H212.891V59.1484C212.901 58.9453 212.948 58.7552 213.031 58.5781C213.115 58.3958 213.224 58.2396 213.359 58.1094C213.5 57.974 213.661 57.8698 213.844 57.7969C214.026 57.7188 214.221 57.6797 214.43 57.6797H217.18C217.393 57.6797 217.594 57.7214 217.781 57.8047C217.969 57.8828 218.13 57.9922 218.266 58.1328C218.406 58.2682 218.516 58.4297 218.594 58.6172C218.677 58.8047 218.719 59.0052 218.719 59.2188V66ZM228.32 62.625H222.812V64.4609H228.32V66H222.812C222.604 66 222.406 65.9609 222.219 65.8828C222.031 65.7995 221.867 65.6901 221.727 65.5547C221.591 65.4141 221.482 65.25 221.398 65.0625C221.32 64.875 221.281 64.6745 221.281 64.4609V59.2188C221.281 59.0052 221.32 58.8047 221.398 58.6172C221.482 58.4297 221.591 58.2682 221.727 58.1328C221.867 57.9922 222.031 57.8828 222.219 57.8047C222.406 57.7214 222.604 57.6797 222.812 57.6797H226.781C226.995 57.6797 227.195 57.7214 227.383 57.8047C227.57 57.8828 227.732 57.9922 227.867 58.1328C228.008 58.2682 228.117 58.4297 228.195 58.6172C228.279 58.8047 228.32 59.0052 228.32 59.2188V62.625ZM222.812 59.2188V61.0859H226.781V59.2188H222.812ZM232.422 59.2188V66H230.891V57.6797H232.422V59.1484C232.432 58.9453 232.479 58.7552 232.562 58.5781C232.646 58.3958 232.755 58.2396 232.891 58.1094C233.031 57.974 233.193 57.8698 233.375 57.7969C233.557 57.7188 233.753 57.6797 233.961 57.6797H235.594C235.807 57.6797 236.005 57.7214 236.188 57.8047C236.375 57.8828 236.539 57.9922 236.68 58.1328C236.82 58.2682 236.93 58.4297 237.008 58.6172C237.091 58.8047 237.133 59.0052 237.133 59.2188V60.625H235.594V59.2188H232.422Z" fill="#1CE9E0"/>
<defs>
<clipPath id="clip0_415_171">
<rect width="135" height="28" fill="white" transform="translate(0 16)"/>
</clipPath>
</defs>
</svg>
