<svg width="144" height="74" viewBox="0 0 144 74" fill="none" xmlns="http://www.w3.org/2000/svg">
<g clip-path="url(#clip0_415_198)">
<path d="M68.8896 22.2175C68.6827 22.2761 68.5062 22.4251 68.4045 22.6292L68.3457 22.7499V34.2126L68.4028 34.3333C68.4777 34.4912 68.6185 34.6314 68.7773 34.7059C68.8932 34.7609 68.9074 34.7627 69.1214 34.7627C69.3158 34.7627 69.355 34.7574 69.4317 34.7219C69.6225 34.6349 69.783 34.4717 69.8579 34.2889L69.8972 34.1949L69.9079 31.6575C69.9186 28.8769 69.9114 29.0526 70.0238 28.7119C70.2021 28.176 70.6372 27.6828 71.1633 27.4201C71.4718 27.2675 71.7892 27.1948 72.1619 27.1948C72.7682 27.1948 73.2765 27.3988 73.7098 27.8141C74.0415 28.1317 74.2555 28.5025 74.3553 28.9284C74.4124 29.1697 74.4178 29.4323 74.4178 31.7923C74.4178 34.1523 74.4195 34.1665 74.4516 34.2623C74.5212 34.4593 74.6585 34.6101 74.8636 34.7077C74.9741 34.7609 74.9884 34.7627 75.2024 34.7627C75.4164 34.7627 75.4307 34.7609 75.5448 34.7041C75.6981 34.6296 75.8765 34.4451 75.9353 34.2978L75.9781 34.1949V31.622C75.9781 29.5565 75.9728 29.0171 75.9549 28.8894C75.889 28.4599 75.7891 28.1335 75.6126 27.7715C75.4235 27.3864 75.2202 27.1007 74.9028 26.7796C74.2983 26.1674 73.6403 25.8143 72.8396 25.6777C72.3902 25.6014 71.7749 25.612 71.3416 25.706C70.894 25.8036 70.4642 25.9846 70.0844 26.2348C70.0006 26.2898 69.9275 26.336 69.9203 26.3395C69.9114 26.3431 69.9061 25.5605 69.9061 24.6006C69.9061 22.7073 69.9079 22.7428 69.808 22.5742C69.7384 22.4553 69.6047 22.3364 69.4638 22.2672C69.3479 22.2087 69.3194 22.2033 69.1607 22.198C69.043 22.1927 68.9574 22.1998 68.8896 22.2175Z" fill="#E7FBF8"/>
<path d="M88.6107 22.2496C87.8403 22.5264 87.7743 23.5982 88.5055 23.9531C89.1314 24.2583 89.8607 23.8111 89.8607 23.1227C89.8607 22.8742 89.7823 22.6861 89.5986 22.4927C89.5077 22.3951 89.4488 22.3508 89.3293 22.2922C89.1777 22.2177 89.176 22.2177 88.9531 22.2124C88.7533 22.2088 88.7159 22.2124 88.6107 22.2496Z" fill="#E7FBF8"/>
<path d="M31.0215 25.6352C30.5775 25.6689 30.1852 25.8002 29.8178 26.0362C29.1865 26.4444 28.7639 27.0548 28.6194 27.7663C28.5659 28.0307 28.5624 28.595 28.6123 28.8718C28.7264 29.507 29.0082 29.9613 29.4808 30.2753C29.7536 30.4563 30.1441 30.6267 30.5668 30.7509C30.6506 30.7757 30.9823 30.8715 31.3051 30.9656C31.9631 31.1572 32.0522 31.1892 32.202 31.2903C32.4089 31.4305 32.5373 31.5937 32.6104 31.8084C32.6621 31.961 32.6568 32.2733 32.5997 32.4472C32.4945 32.7648 32.2074 33.0541 31.8882 33.1605C31.7723 33.1996 31.7544 33.2013 30.4241 33.2102C29.1954 33.2191 29.0706 33.2226 28.9975 33.251C28.796 33.3309 28.6391 33.4764 28.5445 33.6716C28.4928 33.7816 28.4893 33.7976 28.4893 33.9998C28.4893 34.2021 28.491 34.2181 28.5463 34.3334C28.6212 34.4878 28.7674 34.6333 28.9244 34.7078L29.0421 34.7628H31.8596L32.0469 34.722C32.3821 34.6475 32.6514 34.5339 32.9296 34.3494C33.5555 33.9377 33.9728 33.3167 34.1012 32.6069C34.1529 32.323 34.1529 31.8315 34.1012 31.5423C33.9889 30.923 33.7143 30.4829 33.2453 30.1795C32.8975 29.9542 32.5105 29.8069 31.6457 29.5709C30.754 29.3278 30.5846 29.2586 30.3599 29.0315C30.1566 28.8274 30.0675 28.6056 30.0675 28.3039C30.0675 28.0023 30.1673 27.7503 30.3956 27.5214C30.5044 27.4132 30.5721 27.3617 30.6738 27.3138C30.9199 27.1949 30.9181 27.1949 31.9417 27.1949C32.4927 27.1949 32.9011 27.1878 32.9581 27.1772C33.1739 27.1364 33.3879 26.9873 33.4967 26.8046C33.5876 26.6484 33.6215 26.4053 33.5787 26.2208C33.511 25.9244 33.2453 25.6814 32.9385 25.6334C32.8048 25.6139 31.2926 25.6139 31.0215 25.6352Z" fill="#E7FBF8"/>
<path d="M39.1354 25.6352C38.0155 25.7044 37.0276 26.1587 36.2073 26.9838C35.5938 27.6013 35.1997 28.2844 35.0089 29.0598C34.9215 29.4183 34.8983 29.6188 34.8876 30.073C34.8769 30.5362 34.8948 30.7775 34.9643 31.1377C35.1355 32.016 35.5314 32.74 36.218 33.4249C36.6245 33.8295 36.9313 34.0584 37.3682 34.2855C38.0244 34.6244 38.6611 34.7717 39.4742 34.7717C40.2874 34.7717 40.858 34.6422 41.5072 34.3281C42.4576 33.865 43.3136 32.976 43.7238 32.0214C43.8789 31.6629 43.9752 31.3205 44.043 30.8857C44.0822 30.6302 44.0876 29.8317 44.0519 29.5815C43.9057 28.5701 43.5151 27.7698 42.8161 27.0459C41.9619 26.1604 40.9936 25.7115 39.7774 25.6334C39.4671 25.6139 39.4742 25.6139 39.1354 25.6352ZM40.093 27.2624C40.9543 27.4416 41.7247 28.0165 42.1634 28.8097C42.5379 29.4875 42.6146 30.4049 42.3613 31.1785C42.1206 31.9113 41.5 32.6069 40.776 32.9529C40.0877 33.283 39.2192 33.3309 38.4827 33.0754C37.5001 32.7364 36.7226 31.8617 36.5158 30.8644C36.4427 30.5131 36.4337 30.0287 36.4962 29.688C36.6031 29.0794 36.8635 28.5825 37.3147 28.1194C37.7908 27.6332 38.3401 27.3475 39.0106 27.2393C39.246 27.202 39.8612 27.2145 40.093 27.2624Z" fill="#E7FBF8"/>
<path d="M49.4156 25.6352C48.6274 25.6849 47.9087 25.9191 47.2667 26.3397C46.985 26.5224 46.8138 26.6608 46.5463 26.9199C45.792 27.6492 45.3533 28.4867 45.1946 29.5017C45.15 29.7927 45.15 30.6125 45.1946 30.9035C45.2677 31.3755 45.4032 31.8084 45.5994 32.2094C46.0844 33.1925 47.0153 34.0584 48.0246 34.4612C48.6131 34.6954 49.1392 34.7824 49.8846 34.7664C50.3536 34.7575 50.5694 34.7291 50.9546 34.6315C51.5288 34.4825 52.1279 34.1791 52.6201 33.7851L52.786 33.6521V33.8916C52.786 34.0797 52.7931 34.1524 52.8216 34.2447C52.8841 34.4434 53.0428 34.6191 53.2496 34.7167C53.3388 34.7593 53.3673 34.7628 53.5706 34.7628C53.7739 34.7628 53.7989 34.7611 53.9094 34.7078C54.0521 34.6386 54.1537 34.5535 54.2358 34.431C54.3624 34.2394 54.3553 34.3813 54.3553 32.0054C54.3553 29.6294 54.3535 29.6614 54.2661 29.2355C54.1538 28.6908 53.938 28.1762 53.6277 27.7077C53.428 27.4114 53.2443 27.1932 52.9625 26.9181C52.7039 26.6679 52.5328 26.5295 52.2492 26.3432C51.5983 25.9138 50.8939 25.6867 50.0487 25.6334C49.7401 25.6139 49.7437 25.6139 49.4156 25.6352ZM50.3696 27.2482C51.2024 27.4238 51.9282 27.9473 52.383 28.6979C52.9019 29.5567 52.9179 30.7385 52.424 31.6345C52.2332 31.9823 51.8605 32.4064 51.5413 32.6389C51.0188 33.0221 50.4231 33.2102 49.7491 33.2102C48.7754 33.2084 47.9462 32.8021 47.3434 32.0302C46.9083 31.4748 46.6961 30.797 46.7282 30.0784C46.7656 29.2834 47.0456 28.65 47.6056 28.0892C48.0318 27.6634 48.4526 27.4203 48.9965 27.2819C49.2925 27.2091 49.4192 27.1967 49.8257 27.2038C50.1128 27.2091 50.2305 27.218 50.3696 27.2482Z" fill="#E7FBF8"/>
<path d="M58.8669 25.6351C57.788 25.7132 56.8554 26.2668 56.2401 27.1948C55.9584 27.6207 55.7872 28.0891 55.7194 28.6285C55.6944 28.8273 55.6927 29.168 55.6962 31.5333L55.7016 34.2126L55.7586 34.3333C55.8335 34.4912 55.9744 34.6314 56.1331 34.7059C56.249 34.7609 56.2633 34.7627 56.4773 34.7627C56.6913 34.7627 56.7091 34.7592 56.7983 34.7166C57.0051 34.619 57.1639 34.4433 57.2263 34.2446C57.2619 34.131 57.2619 34.0849 57.2619 31.5439C57.2619 29.9274 57.2691 28.9142 57.2798 28.8361C57.3458 28.3766 57.5294 28.0235 57.8683 27.7041C58.0662 27.5178 58.2606 27.3935 58.4906 27.3084C58.7296 27.2197 58.9061 27.1948 59.3198 27.1948C59.5178 27.1948 59.7282 27.1859 59.7871 27.1753C59.9386 27.1469 60.0724 27.0759 60.1883 26.9624C60.6377 26.5152 60.3791 25.722 59.755 25.6333C59.6248 25.6138 59.1379 25.6138 58.8669 25.6351Z" fill="#E7FBF8"/>
<path d="M64.9748 25.6351C63.846 25.7079 62.867 26.1603 62.0467 26.9837C61.6615 27.3723 61.4011 27.7271 61.1782 28.1725C60.9731 28.5824 60.8394 29.003 60.7663 29.4661C60.7253 29.7163 60.711 30.426 60.7395 30.7029C60.8233 31.5368 61.1033 32.2501 61.6098 32.9262C61.7881 33.1622 62.2785 33.6608 62.505 33.8347C63.204 34.3688 63.9316 34.6616 64.8001 34.7539C65.0979 34.7858 65.8058 34.768 66.0822 34.7201C66.3765 34.6705 66.701 34.5853 66.8348 34.5232C66.9863 34.454 67.1237 34.3191 67.1879 34.1807C67.236 34.0778 67.2396 34.0565 67.2396 33.84C67.2396 33.6235 67.2378 33.604 67.1843 33.4922C67.0826 33.2793 66.8829 33.1249 66.6386 33.0753C66.487 33.0433 66.4353 33.0486 66.1161 33.1303C65.7898 33.2137 65.6239 33.2349 65.2869 33.2332C64.9302 33.2296 64.6645 33.1888 64.356 33.0859C63.7176 32.873 63.1755 32.4542 62.7814 31.8704C62.4319 31.3523 62.2714 30.7667 62.2963 30.1049C62.3159 29.5921 62.4301 29.1768 62.669 28.7528C62.8046 28.5114 62.9526 28.3234 63.1987 28.082C63.4644 27.8194 63.6837 27.6597 63.9762 27.516C64.3899 27.3119 64.7252 27.2303 65.2156 27.2179C65.5865 27.2072 65.8094 27.2339 66.1446 27.3297C66.3408 27.3847 66.3836 27.3918 66.5263 27.3865C66.6654 27.3811 66.7028 27.3723 66.8116 27.319C66.9685 27.241 67.1183 27.0955 67.1879 26.9553C67.2378 26.8524 67.2396 26.8399 67.2396 26.5915C67.2396 26.3431 67.236 26.3271 67.1932 26.2349C67.0987 26.0326 66.9507 25.9172 66.6796 25.8303C66.1785 25.6688 65.5526 25.5961 64.9748 25.6351Z" fill="#E7FBF8"/>
<path d="M81.5684 25.6352C80.7802 25.6849 80.0616 25.9191 79.4196 26.3397C79.1378 26.5224 78.9666 26.6608 78.6991 26.9199C77.9448 27.6492 77.5061 28.4867 77.3474 29.5017C77.3028 29.7927 77.3028 30.6125 77.3474 30.9035C77.4205 31.3755 77.556 31.8084 77.7522 32.2094C78.2373 33.1925 79.1681 34.0584 80.1775 34.4612C80.7659 34.6954 81.292 34.7824 82.0374 34.7664C82.5064 34.7575 82.7222 34.7291 83.1074 34.6315C83.6816 34.4825 84.2808 34.1791 84.773 33.7851L84.9388 33.6521V33.8916C84.9388 34.0797 84.9459 34.1524 84.9745 34.2447C85.0369 34.4434 85.1956 34.6191 85.4025 34.7167C85.4916 34.7593 85.5202 34.7628 85.7235 34.7628C85.9267 34.7628 85.9517 34.7611 86.0623 34.7078C86.2049 34.6386 86.3066 34.5535 86.3886 34.431C86.5152 34.2394 86.5081 34.3813 86.5081 32.0054C86.5081 29.6294 86.5063 29.6614 86.4189 29.2355C86.3066 28.6908 86.0908 28.1762 85.7805 27.7077C85.5808 27.4114 85.3971 27.1932 85.1154 26.9181C84.8568 26.6679 84.6856 26.5295 84.402 26.3432C83.7511 25.9138 83.0468 25.6867 82.2015 25.6334C81.893 25.6139 81.8965 25.6139 81.5684 25.6352ZM82.5225 27.2482C83.3553 27.4238 84.0811 27.9473 84.5358 28.6979C85.0547 29.5567 85.0708 30.7385 84.5768 31.6345C84.386 31.9823 84.0133 32.4064 83.6941 32.6389C83.1716 33.0221 82.576 33.2102 81.9019 33.2102C80.9282 33.2084 80.099 32.8021 79.4962 32.0302C79.0611 31.4748 78.8489 30.797 78.881 30.0784C78.9185 29.2834 79.1984 28.65 79.7584 28.0892C80.1846 27.6634 80.6055 27.4203 81.1493 27.2819C81.4454 27.2091 81.572 27.1967 81.9786 27.2038C82.2657 27.2091 82.3834 27.218 82.5225 27.2482Z" fill="#E7FBF8"/>
<path d="M88.7729 25.6352C88.7194 25.6441 88.6338 25.6707 88.5821 25.6955C88.4644 25.7488 88.295 25.9067 88.2326 26.0203C88.1238 26.2172 88.131 25.9511 88.131 30.1973C88.131 32.9689 88.1363 34.1045 88.1506 34.172C88.1952 34.3867 88.3824 34.6191 88.5893 34.7149C88.6855 34.7593 88.7105 34.7628 88.9245 34.7628C89.1385 34.7628 89.1635 34.7593 89.2598 34.7149C89.3935 34.6528 89.579 34.4701 89.6378 34.3423C89.661 34.2891 89.6895 34.1915 89.7002 34.124C89.7234 33.9555 89.7234 26.4515 89.7002 26.2847C89.6521 25.9528 89.3882 25.6849 89.0583 25.6334C88.9263 25.6139 88.9085 25.6139 88.7729 25.6352Z" fill="#E7FBF8"/>
<path d="M94.9603 25.628C94.4628 25.6511 93.9474 25.7806 93.5069 25.9953C93.1128 26.1869 92.7954 26.4194 92.4548 26.7601C91.8271 27.39 91.4669 28.137 91.3759 28.9958C91.3616 29.136 91.3581 29.9097 91.3616 31.7018L91.367 34.2126L91.4241 34.3333C91.4989 34.4912 91.6398 34.6314 91.7985 34.7059C91.9145 34.7609 91.9287 34.7627 92.1427 34.7627C92.3371 34.7627 92.3763 34.7574 92.453 34.7219C92.6438 34.635 92.8043 34.4717 92.8792 34.2889L92.9184 34.1949L92.9291 31.6575C92.9398 28.877 92.9327 29.0526 93.0451 28.7119C93.2234 28.1761 93.6585 27.6828 94.1846 27.4202C94.4931 27.2676 94.8105 27.1948 95.1832 27.1948C95.7895 27.1948 96.2977 27.3989 96.7311 27.8141C97.0628 28.1317 97.2768 28.5026 97.3766 28.9284C97.4337 29.1697 97.439 29.4324 97.439 31.7923C97.439 34.1523 97.4408 34.1665 97.4729 34.2623C97.5425 34.4593 97.6798 34.6101 97.8849 34.7077C97.9954 34.7609 98.0097 34.7627 98.2237 34.7627C98.4377 34.7627 98.4519 34.7609 98.5661 34.7042C98.7194 34.6296 98.8978 34.4451 98.9566 34.2978L98.9994 34.1949V31.622C98.9994 29.5566 98.9941 29.0171 98.9762 28.8894C98.9102 28.46 98.8104 28.1335 98.6338 27.7715C98.4448 27.3864 98.2415 27.1008 97.9241 26.7796C97.3196 26.1674 96.6615 25.8143 95.8608 25.6777C95.6968 25.6493 95.251 25.6138 95.1386 25.6191C95.1047 25.6209 95.0245 25.6244 94.9603 25.628Z" fill="#E7FBF8"/>
<path d="M8.45455 16.0264C7.00832 16.1684 5.59596 16.6546 4.37977 17.4247C4.19966 17.5382 3.84835 17.7778 3.75562 17.8523C3.43463 18.1043 3.31337 18.2054 3.08689 18.4059C2.85328 18.6135 2.48771 18.9844 2.30938 19.1938C2.27015 19.2381 2.20239 19.3197 2.15424 19.373C1.82255 19.7616 1.39456 20.3915 1.11637 20.9061C0.980844 21.158 0.782901 21.5679 0.724053 21.7205C0.70087 21.7791 0.638455 21.9423 0.583174 22.0825C0.469044 22.37 0.394147 22.6113 0.280017 23.0513C0.165887 23.4861 0.087423 23.9386 0.0285749 24.4833C-0.00887392 24.8435 -0.00887392 25.8549 0.0285749 26.2151C0.137355 27.2372 0.328165 27.9967 0.722269 28.9779C0.7936 29.1571 1.10746 29.7888 1.20375 29.9538C1.23942 30.0124 1.28757 30.0993 1.31253 30.1455C1.40705 30.3211 1.80828 30.9262 2.00979 31.1995C2.30939 31.6005 2.54299 31.84 2.95315 32.1683C3.10116 32.2872 3.32585 32.4682 3.45247 32.5729C3.58086 32.6776 3.87688 32.9207 4.11228 33.1123C4.34767 33.3039 4.64013 33.5417 4.76139 33.6411C4.88444 33.7405 5.04493 33.8718 5.11805 33.9321C5.19294 33.9924 5.44617 34.1983 5.68156 34.3899C5.91695 34.5815 6.20228 34.814 6.31462 34.9045C6.42697 34.9967 6.6481 35.176 6.80502 35.3037C6.96195 35.4333 7.1706 35.6018 7.26868 35.6817C7.36676 35.7615 7.53973 35.9017 7.65208 35.9957C7.76443 36.088 7.92135 36.2158 8.0016 36.2797C8.08007 36.3435 8.22808 36.4624 8.32794 36.5458C8.73631 36.8812 8.89324 36.9894 9.14825 37.1083C9.54414 37.2946 9.89188 37.3585 10.3751 37.339C10.6177 37.3283 10.7193 37.3088 11.0029 37.2183C11.6502 37.0107 12.2191 36.4961 12.4955 35.8662C12.7861 35.2061 12.7843 34.5106 12.4883 33.8522C12.3207 33.4778 12.0889 33.1797 11.7572 32.9118C11.6645 32.8373 11.5432 32.7397 11.4897 32.6953C11.4362 32.651 11.3613 32.5906 11.3238 32.5622C11.2882 32.5321 11.1099 32.3848 10.9297 32.234C10.5107 31.8826 9.67967 31.1888 9.52452 31.0629C9.45854 31.0096 9.30874 30.8854 9.19283 30.7878C9.07692 30.6902 8.95566 30.5909 8.92534 30.566C8.89502 30.5412 8.72561 30.401 8.55085 30.2555C7.71806 29.5564 7.57362 29.4357 7.52012 29.3949C7.48802 29.3701 7.24728 29.1695 6.98335 28.9495C5.54068 27.7447 5.23217 27.404 4.87909 26.6179C4.64548 26.098 4.51886 25.3776 4.56345 24.8133C4.62943 23.9971 4.87552 23.3264 5.34452 22.6947C5.71901 22.1907 6.26647 21.7471 6.84069 21.4863C7.40777 21.229 7.89996 21.1208 8.51697 21.1208C9.34798 21.1208 10.0702 21.3444 10.7817 21.8181C10.8923 21.8926 10.9886 21.9707 11.2632 22.2085C11.3827 22.3114 11.5361 22.4392 11.6038 22.4942C11.6716 22.551 11.8321 22.6823 11.9623 22.787C12.0907 22.8934 12.3189 23.0797 12.4687 23.2022C12.6185 23.3246 12.7897 23.4648 12.8485 23.5145C13.0215 23.6564 14.0505 24.501 14.1254 24.5596C14.161 24.588 14.2502 24.6607 14.3215 24.7193C14.3929 24.7779 14.5052 24.8701 14.5712 24.9234C14.6372 24.9766 14.8654 25.1647 15.0794 25.3403C15.2934 25.516 15.5609 25.736 15.675 25.8283C15.8855 25.9987 16.3152 26.35 16.6933 26.6605C17.1248 27.0154 17.8007 27.7269 18.1627 28.2096C18.2608 28.3391 18.3 28.3693 18.3232 28.332C18.3464 28.2965 18.4962 27.7713 18.5639 27.4874C18.7405 26.7546 18.8279 25.9224 18.81 25.154C18.7762 23.754 18.4463 22.409 17.8328 21.1882C17.4851 20.4962 17.0553 19.8485 16.5524 19.263C16.2172 18.8708 15.6679 18.3403 15.2809 18.0333C13.972 16.9935 12.4223 16.3192 10.7906 16.0796C10.3413 16.014 10.0595 15.998 9.37294 15.9996C8.95387 16.0014 8.60435 16.0103 8.45455 16.0262V16.0264ZM8.19598 22.6911C8.11217 22.7053 7.88569 22.7674 7.74124 22.8136C7.70736 22.826 7.61106 22.8668 7.52725 22.9076C6.72834 23.298 6.20406 24.0521 6.1149 24.9411C6.04892 25.5888 6.30571 26.3305 6.76936 26.8344C6.88527 26.9604 7.17773 27.223 7.36854 27.3738C7.45949 27.443 7.99625 27.8902 8.48665 28.3019C8.58652 28.3853 8.75058 28.5237 8.85223 28.6071C9.21958 28.9176 10.2967 29.8137 10.3627 29.8651C10.4376 29.9254 11.1972 30.5536 11.3256 30.6636C11.372 30.7026 11.4915 30.802 11.5931 30.8854C11.693 30.9688 11.8374 31.0877 11.9141 31.1516C11.989 31.2155 12.2191 31.4071 12.4241 31.5774C13.1214 32.1594 13.3068 32.3458 13.569 32.7308C13.7366 32.9757 13.7955 33.0786 13.9042 33.3199C14.1468 33.8576 14.2573 34.3704 14.2573 34.9577C14.2573 36.0099 13.8525 36.9894 13.1107 37.7329C12.5329 38.3131 11.8321 38.6769 10.9779 38.8384C10.7906 38.8739 10.7086 38.8792 10.3092 38.8792C9.94716 38.8792 9.8152 38.8721 9.66718 38.8472C9.09475 38.7479 8.599 38.5562 8.13535 38.2546C7.91601 38.1126 7.86429 38.0718 7.53438 37.7879C7.41669 37.685 7.25976 37.5537 7.18665 37.4934C7.11353 37.4348 6.93342 37.2875 6.78541 37.1651C6.6374 37.0444 6.41449 36.8617 6.28787 36.7587C6.16304 36.6558 5.98293 36.5086 5.88842 36.4305C5.79212 36.3524 5.58705 36.1838 5.4319 36.0578C5.27676 35.9301 5.02531 35.7243 4.87195 35.5983C4.58485 35.3623 4.16756 35.0216 3.88223 34.7891C3.79129 34.7164 3.58621 34.5478 3.42393 34.4147C3.26344 34.2817 3.07798 34.1291 3.01378 34.0776C2.81227 33.9143 2.32187 33.5133 2.10609 33.3359C1.81542 33.0946 1.2412 32.5179 0.989761 32.2162C0.727619 31.9022 0.554641 31.6768 0.554641 31.6502C0.554641 31.6236 0.527892 31.6253 0.50471 31.6537C0.49401 31.6662 0.465478 31.7442 0.440512 31.8259C0.417329 31.9093 0.37988 32.0281 0.360264 32.092C0.317466 32.2322 0.18907 32.7716 0.164104 32.9171C0.0250083 33.728 -0.0267067 34.5496 0.0178752 35.1884C0.0410578 35.4918 0.121305 36.1448 0.171237 36.411C0.315682 37.1988 0.654505 38.1747 1.03969 38.9182C1.55684 39.919 2.27015 40.8417 3.10294 41.5905C3.80555 42.2204 4.49568 42.6853 5.30707 43.0757C6.35742 43.5814 7.37211 43.8653 8.49914 43.9718C8.88967 44.009 9.94537 44.009 10.3359 43.9718C11.2882 43.8813 12.1709 43.6595 13.0911 43.2762C13.2997 43.1892 13.8062 42.9461 13.947 42.8645C14.2966 42.6605 14.4053 42.593 14.6247 42.4493C15.297 42.0075 16.0424 41.3545 16.515 40.7956C16.556 40.7459 16.6113 40.682 16.638 40.6536C16.6648 40.6234 16.77 40.4921 16.8716 40.3608C17.5796 39.4434 18.1021 38.4302 18.432 37.3354C18.6085 36.7552 18.7369 36.0791 18.7976 35.4102C18.8118 35.2682 18.8154 34.9453 18.81 34.5052C18.8011 33.7813 18.7922 33.6659 18.6799 32.997C18.6032 32.5356 18.4177 31.8542 18.2483 31.4089C18.0807 30.9724 18.029 30.8517 17.8435 30.4826C17.5653 29.9237 17.2283 29.3878 16.8752 28.9389C16.7896 28.8306 16.6523 28.655 16.5685 28.5485C16.4008 28.3356 16.103 28.0304 15.9265 27.892C15.8623 27.8405 15.6822 27.695 15.5252 27.5672C15.3683 27.4377 15.1401 27.2532 15.017 27.1538C14.894 27.0544 14.6764 26.877 14.5337 26.7599C14.3911 26.6428 14.17 26.4636 14.0451 26.3606C13.9185 26.2577 13.7616 26.13 13.6956 26.0767C13.6314 26.0235 13.4352 25.8638 13.2605 25.7218C12.6774 25.2481 12.6167 25.2002 12.2351 24.8879C12.0265 24.7175 11.7857 24.5206 11.7019 24.4531C11.6163 24.3839 11.4166 24.2207 11.2561 24.0894C11.0956 23.9581 10.8941 23.7931 10.8085 23.7256C10.7229 23.6564 10.5713 23.534 10.4714 23.4506C10.0898 23.1365 9.95429 23.0425 9.68858 22.9112C9.52452 22.8295 9.21958 22.7302 9.02699 22.6965C8.85936 22.6663 8.34399 22.6627 8.19598 22.6911Z" fill="#E7FBF8"/>
</g>
<path d="M1.54688 54.7969H9.71094V56.3984H3.14844V59.6016H8.75V61.2031H3.14844V66H1.54688V54.7969ZM18.9922 64.4609C18.9922 64.6745 18.9505 64.875 18.8672 65.0625C18.7891 65.25 18.6797 65.4141 18.5391 65.5547C18.4036 65.6901 18.2422 65.7995 18.0547 65.8828C17.8724 65.9609 17.6745 66 17.4609 66H13.3281C13.1198 66 12.9219 65.9609 12.7344 65.8828C12.5469 65.7995 12.3828 65.6901 12.2422 65.5547C12.1068 65.4141 11.9974 65.25 11.9141 65.0625C11.8359 64.875 11.7969 64.6745 11.7969 64.4609V59.2188C11.7969 59.0052 11.8359 58.8047 11.9141 58.6172C11.9974 58.4297 12.1068 58.2682 12.2422 58.1328C12.3828 57.9922 12.5469 57.8828 12.7344 57.8047C12.9219 57.7214 13.1198 57.6797 13.3281 57.6797H17.4609C17.6745 57.6797 17.8724 57.7214 18.0547 57.8047C18.2422 57.8828 18.4036 57.9922 18.5391 58.1328C18.6797 58.2682 18.7891 58.4297 18.8672 58.6172C18.9505 58.8047 18.9922 59.0052 18.9922 59.2188V64.4609ZM13.3281 59.2188V64.4609H17.4609V59.2188H13.3281ZM21.5625 57.6797H23.0938V64.4609H27.3828V57.6797H28.9219V66H27.3828V64.5938C27.3672 64.7865 27.3151 64.9688 27.2266 65.1406C27.138 65.3125 27.0234 65.4635 26.8828 65.5938C26.7474 65.7188 26.5911 65.8177 26.4141 65.8906C26.237 65.9635 26.0495 66 25.8516 66H23.0938C22.8854 66 22.6875 65.9609 22.5 65.8828C22.3125 65.7995 22.1484 65.6901 22.0078 65.5547C21.8724 65.4141 21.763 65.25 21.6797 65.0625C21.6016 64.875 21.5625 64.6745 21.5625 64.4609V57.6797ZM38.8438 66H37.3047V59.2188H33.0156V66H31.4844V57.6797H33.0156V59.1484C33.026 58.9453 33.0729 58.7552 33.1562 58.5781C33.2396 58.3958 33.349 58.2396 33.4844 58.1094C33.625 57.974 33.7865 57.8698 33.9688 57.7969C34.151 57.7188 34.3464 57.6797 34.5547 57.6797H37.3047C37.5182 57.6797 37.7188 57.7214 37.9062 57.8047C38.0938 57.8828 38.2552 57.9922 38.3906 58.1328C38.5312 58.2682 38.6406 58.4297 38.7188 58.6172C38.8021 58.8047 38.8438 59.0052 38.8438 59.2188V66ZM41.4062 59.2188C41.4062 59.0052 41.4453 58.8047 41.5234 58.6172C41.6068 58.4297 41.7161 58.2682 41.8516 58.1328C41.9922 57.9922 42.1562 57.8828 42.3438 57.8047C42.5312 57.7214 42.7292 57.6797 42.9375 57.6797H47.2266V54.4766H48.7656V66H47.2266V64.5938C47.2109 64.7865 47.1589 64.9688 47.0703 65.1406C46.9818 65.3125 46.8672 65.4635 46.7266 65.5938C46.5911 65.7188 46.4349 65.8177 46.2578 65.8906C46.0807 65.9635 45.8932 66 45.6953 66H42.9375C42.7292 66 42.5312 65.9609 42.3438 65.8828C42.1562 65.7995 41.9922 65.6901 41.8516 65.5547C41.7161 65.4141 41.6068 65.25 41.5234 65.0625C41.4453 64.875 41.4062 64.6745 41.4062 64.4609V59.2188ZM42.9375 64.4609H47.2266V59.2188H42.9375V64.4609ZM52.9453 57.6797V66H51.4062V57.6797H52.9453ZM51.3281 54.4766H53.0234V56.0781H51.3281V54.4766ZM62.9531 66H61.4141V59.2188H57.125V66H55.5938V57.6797H57.125V59.1484C57.1354 58.9453 57.1823 58.7552 57.2656 58.5781C57.349 58.3958 57.4583 58.2396 57.5938 58.1094C57.7344 57.974 57.8958 57.8698 58.0781 57.7969C58.2604 57.7188 58.4557 57.6797 58.6641 57.6797H61.4141C61.6276 57.6797 61.8281 57.7214 62.0156 57.8047C62.2031 57.8828 62.3646 57.9922 62.5 58.1328C62.6406 58.2682 62.75 58.4297 62.8281 58.6172C62.9115 58.8047 62.9531 59.0052 62.9531 59.2188V66ZM65.5156 59.2188C65.5156 59.0052 65.5547 58.8047 65.6328 58.6172C65.7161 58.4297 65.8255 58.2682 65.9609 58.1328C66.1016 57.9922 66.2656 57.8828 66.4531 57.8047C66.6406 57.7214 66.8385 57.6797 67.0469 57.6797H69.8047C70.0078 57.6797 70.2005 57.7188 70.3828 57.7969C70.5651 57.8698 70.724 57.974 70.8594 58.1094C71 58.2396 71.112 58.3958 71.1953 58.5781C71.2839 58.7552 71.3307 58.9453 71.3359 59.1484V57.6797H72.875V67.8203C72.875 68.0339 72.8333 68.2344 72.75 68.4219C72.6719 68.6094 72.5625 68.7708 72.4219 68.9062C72.2865 69.0469 72.125 69.1562 71.9375 69.2344C71.75 69.3177 71.5495 69.3594 71.3359 69.3594H66.4766V67.8203H71.3359V65.6797H67.0469C66.8385 65.6797 66.6406 65.6406 66.4531 65.5625C66.2656 65.4792 66.1016 65.3698 65.9609 65.2344C65.8255 65.0938 65.7161 64.9297 65.6328 64.7422C65.5547 64.5547 65.5156 64.3542 65.5156 64.1406V59.2188ZM71.3359 64.1406V59.2188H67.0469V64.1406H71.3359ZM80.3906 66V54.7969H86.5234C88.3359 54.7969 89.2422 55.7057 89.2422 57.5234V59.1172C89.2422 60.9349 88.3359 61.8438 86.5234 61.8438H81.9922V66H80.3906ZM81.9922 60.2422H86.4375C86.8646 60.2422 87.1719 60.1484 87.3594 59.9609C87.5469 59.7734 87.6406 59.4661 87.6406 59.0391V57.6016C87.6406 57.1745 87.5469 56.8672 87.3594 56.6797C87.1719 56.4922 86.8646 56.3984 86.4375 56.3984H81.9922V60.2422ZM91.3281 62.3672C91.3281 62.1536 91.3672 61.9557 91.4453 61.7734C91.5286 61.5859 91.638 61.4219 91.7734 61.2812C91.9141 61.1406 92.0781 61.0312 92.2656 60.9531C92.4531 60.8698 92.651 60.8281 92.8594 60.8281H96.8281V59.2188H91.8047V57.6797H96.8281C97.0417 57.6797 97.2422 57.7214 97.4297 57.8047C97.6172 57.8828 97.7786 57.9922 97.9141 58.1328C98.0547 58.2682 98.1641 58.4297 98.2422 58.6172C98.3255 58.8047 98.3672 59.0052 98.3672 59.2188V66H96.8281V64.5938C96.8125 64.7865 96.7604 64.9688 96.6719 65.1406C96.5833 65.3125 96.4688 65.4635 96.3281 65.5938C96.1927 65.7188 96.0365 65.8177 95.8594 65.8906C95.6823 65.9635 95.4948 66 95.2969 66H92.8594C92.651 66 92.4531 65.9609 92.2656 65.8828C92.0781 65.7995 91.9141 65.6901 91.7734 65.5547C91.638 65.4141 91.5286 65.25 91.4453 65.0625C91.3672 64.875 91.3281 64.6745 91.3281 64.4609V62.3672ZM92.8594 64.4609H96.8281V62.3672H92.8594V64.4609ZM102.469 59.2188V66H100.938V57.6797H102.469V59.1484C102.479 58.9453 102.526 58.7552 102.609 58.5781C102.693 58.3958 102.802 58.2396 102.938 58.1094C103.078 57.974 103.24 57.8698 103.422 57.7969C103.604 57.7188 103.799 57.6797 104.008 57.6797H105.641C105.854 57.6797 106.052 57.7214 106.234 57.8047C106.422 57.8828 106.586 57.9922 106.727 58.1328C106.867 58.2682 106.977 58.4297 107.055 58.6172C107.138 58.8047 107.18 59.0052 107.18 59.2188V60.625H105.641V59.2188H102.469ZM108.609 57.6797H110.641V55.1172H112.18V57.6797H114.914V59.2188H112.18V64.4609H114.914V66H112.18C111.971 66 111.773 65.9609 111.586 65.8828C111.398 65.7995 111.234 65.6901 111.094 65.5547C110.953 65.4141 110.841 65.25 110.758 65.0625C110.68 64.875 110.641 64.6745 110.641 64.4609V59.2188H108.609V57.6797ZM124.844 66H123.305V59.2188H119.016V66H117.484V57.6797H119.016V59.1484C119.026 58.9453 119.073 58.7552 119.156 58.5781C119.24 58.3958 119.349 58.2396 119.484 58.1094C119.625 57.974 119.786 57.8698 119.969 57.7969C120.151 57.7188 120.346 57.6797 120.555 57.6797H123.305C123.518 57.6797 123.719 57.7214 123.906 57.8047C124.094 57.8828 124.255 57.9922 124.391 58.1328C124.531 58.2682 124.641 58.4297 124.719 58.6172C124.802 58.8047 124.844 59.0052 124.844 59.2188V66ZM134.445 62.625H128.938V64.4609H134.445V66H128.938C128.729 66 128.531 65.9609 128.344 65.8828C128.156 65.7995 127.992 65.6901 127.852 65.5547C127.716 65.4141 127.607 65.25 127.523 65.0625C127.445 64.875 127.406 64.6745 127.406 64.4609V59.2188C127.406 59.0052 127.445 58.8047 127.523 58.6172C127.607 58.4297 127.716 58.2682 127.852 58.1328C127.992 57.9922 128.156 57.8828 128.344 57.8047C128.531 57.7214 128.729 57.6797 128.938 57.6797H132.906C133.12 57.6797 133.32 57.7214 133.508 57.8047C133.695 57.8828 133.857 57.9922 133.992 58.1328C134.133 58.2682 134.242 58.4297 134.32 58.6172C134.404 58.8047 134.445 59.0052 134.445 59.2188V62.625ZM128.938 59.2188V61.0859H132.906V59.2188H128.938ZM138.547 59.2188V66H137.016V57.6797H138.547V59.1484C138.557 58.9453 138.604 58.7552 138.688 58.5781C138.771 58.3958 138.88 58.2396 139.016 58.1094C139.156 57.974 139.318 57.8698 139.5 57.7969C139.682 57.7188 139.878 57.6797 140.086 57.6797H141.719C141.932 57.6797 142.13 57.7214 142.312 57.8047C142.5 57.8828 142.664 57.9922 142.805 58.1328C142.945 58.2682 143.055 58.4297 143.133 58.6172C143.216 58.8047 143.258 59.0052 143.258 59.2188V60.625H141.719V59.2188H138.547Z" fill="#1CE9E0"/>
<defs>
<clipPath id="clip0_415_198">
<rect width="99" height="28" fill="white" transform="translate(0 16)"/>
</clipPath>
</defs>
</svg>
