<svg width="145" height="74" viewBox="0 0 145 74" fill="none" xmlns="http://www.w3.org/2000/svg">
<path d="M7.18369 33.8819C5.86687 33.8819 4.70792 33.7548 3.70682 33.5005C2.71343 33.2462 1.78935 32.9303 0.93457 32.5527V28.4607H1.32731C2.18979 29.1928 3.14082 29.7554 4.18042 30.1484C5.22001 30.5414 6.22881 30.7379 7.2068 30.7379C7.45322 30.7379 7.77665 30.7109 8.17709 30.657C8.58522 30.603 8.9125 30.5183 9.15893 30.4027C9.45925 30.2717 9.71338 30.0906 9.9213 29.8594C10.1292 29.6205 10.2332 29.3084 10.2332 28.9231C10.2332 28.4916 10.0638 28.1409 9.72493 27.8712C9.3861 27.6015 8.98181 27.405 8.51207 27.2817C7.92681 27.1276 7.2992 26.9812 6.62924 26.8425C5.96698 26.7038 5.34707 26.5342 4.76952 26.3339C3.4373 25.8638 2.48241 25.2319 1.90486 24.4382C1.32731 23.6445 1.03853 22.6504 1.03853 21.4559C1.03853 19.8454 1.72004 18.5431 3.08307 17.549C4.44609 16.5472 6.14795 16.0463 8.18864 16.0463C9.21283 16.0463 10.2293 16.1503 11.2381 16.3584C12.2546 16.5665 13.7543 16.9328 14.5551 17.2873V21.2072H13.9525C13.3133 20.66 12.1622 20.1228 11.2381 19.7452C10.3217 19.3676 9.3784 19.1788 8.40811 19.1788C8.03077 19.1788 7.69194 19.2058 7.39161 19.2597C7.09129 19.3137 6.77556 19.4177 6.44443 19.5718C6.1749 19.6951 5.94003 19.8801 5.73981 20.1266C5.54729 20.3655 5.45103 20.6352 5.45103 20.9358C5.45103 21.375 5.60505 21.7257 5.91308 21.9877C6.22881 22.242 6.83331 22.4731 7.72659 22.6812C8.30415 22.8122 8.8586 22.9394 9.38995 23.0627C9.929 23.186 10.5027 23.3555 11.1111 23.5713C12.3047 24.0028 13.1902 24.5846 13.7678 25.3167C14.3531 26.041 14.6457 27.0004 14.6457 28.1949C14.6457 29.9056 13.9719 31.2812 12.6242 32.3215C11.2843 33.3618 9.4708 33.8819 7.18369 33.8819Z" fill="#E7FBF8"/>
<path d="M32.0536 24.9699C32.0536 27.7518 31.3105 29.9403 29.8242 31.5355C28.338 33.1306 26.3012 33.9282 23.7137 33.9282C21.1186 33.9282 19.0817 33.1229 17.6032 31.5123C16.1247 29.8941 15.3854 27.7133 15.3854 24.9699C15.3854 22.2034 16.1247 20.0188 17.6032 18.4159C19.0817 16.8053 21.1186 16.0001 23.7137 16.0001C26.3012 16.0001 28.338 16.8015 29.8242 18.4043C31.3105 19.9995 32.0536 22.188 32.0536 24.9699ZM27.5949 24.9583C27.5949 23.9334 27.4871 23.0627 27.2715 22.346C27.0635 21.6216 26.7825 21.0283 26.4282 20.5659C26.0586 20.0958 25.6389 19.7606 25.1692 19.5603C24.7071 19.3522 24.2258 19.2482 23.7253 19.2482C23.1939 19.2482 22.7126 19.3445 22.2814 19.5371C21.8502 19.7221 21.4343 20.0573 21.0339 20.5428C20.6796 20.9897 20.3909 21.5831 20.1675 22.3229C19.9519 23.0627 19.8441 23.945 19.8441 24.9699C19.8441 26.0256 19.9481 26.9041 20.156 27.6054C20.3639 28.2989 20.6488 28.8807 21.0108 29.3508C21.3804 29.8286 21.8001 30.1715 22.2698 30.3795C22.7396 30.5799 23.2247 30.6801 23.7253 30.6801C24.2335 30.6801 24.7264 30.5722 25.2038 30.3564C25.6813 30.133 26.0932 29.79 26.4398 29.3277C26.8094 28.8268 27.0943 28.245 27.2946 27.5823C27.4948 26.9118 27.5949 26.0372 27.5949 24.9583Z" fill="#E7FBF8"/>
<path d="M45.6265 33.5699H34.1448V16.3584H38.4649V30.2871H45.6265V33.5699Z" fill="#E7FBF8"/>
<path d="M54.1632 33.9282C51.853 33.9282 50.0742 33.3695 48.8267 32.2521C47.5868 31.1347 46.9669 29.5011 46.9669 27.3511V16.3584H51.287V27.0968C51.287 28.2912 51.5104 29.1813 51.957 29.7669C52.4113 30.3526 53.1468 30.6454 54.1632 30.6454C55.1566 30.6454 55.8844 30.3641 56.3464 29.8016C56.8161 29.2391 57.051 28.3374 57.051 27.0968V16.3584H61.3711V27.3395C61.3711 29.4587 60.7628 31.0885 59.546 32.229C58.337 33.3618 56.5428 33.9282 54.1632 33.9282Z" fill="#E7FBF8"/>
<path d="M69.5382 33.8819C68.2213 33.8819 67.0624 33.7548 66.0613 33.5005C65.0679 33.2462 64.1438 32.9303 63.289 32.5527V28.4607H63.6818C64.5443 29.1928 65.4953 29.7554 66.5349 30.1484C67.5745 30.5414 68.5833 30.7379 69.5613 30.7379C69.8077 30.7379 70.1311 30.7109 70.5316 30.657C70.9397 30.603 71.267 30.5183 71.5134 30.4027C71.8137 30.2717 72.0679 30.0906 72.2758 29.8594C72.4837 29.6205 72.5876 29.3084 72.5876 28.9231C72.5876 28.4916 72.4182 28.1409 72.0794 27.8712C71.7406 27.6015 71.3363 27.405 70.8665 27.2817C70.2813 27.1276 69.6537 26.9812 68.9837 26.8425C68.3214 26.7038 67.7015 26.5342 67.124 26.3339C65.7918 25.8638 64.8369 25.2319 64.2593 24.4382C63.6818 23.6445 63.393 22.6504 63.393 21.4559C63.393 19.8454 64.0745 18.5431 65.4375 17.549C66.8006 16.5472 68.5024 16.0463 70.5431 16.0463C71.5673 16.0463 72.5838 16.1503 73.5926 16.3584C74.6091 16.5665 75.826 16.9328 76.6269 17.2873V21.1323H76.0242C75.3851 20.5852 74.5167 20.1228 73.5926 19.7452C72.6762 19.3676 71.7329 19.1788 70.7626 19.1788C70.3852 19.1788 70.0464 19.2058 69.7461 19.2597C69.4458 19.3137 69.13 19.4177 68.7989 19.5718C68.5294 19.6951 68.2945 19.8801 68.0943 20.1266C67.9018 20.3655 67.8055 20.6352 67.8055 20.9358C67.8055 21.375 67.9595 21.7257 68.2675 21.9877C68.5833 22.242 69.1878 22.4731 70.0811 22.6812C70.6586 22.8122 71.2131 22.9394 71.7444 23.0627C72.2835 23.186 72.8572 23.3555 73.4655 23.5713C74.6591 24.0028 75.5447 24.5846 76.1223 25.3167C76.7075 26.041 77.0002 27.0004 77.0002 28.1949C77.0002 29.9056 76.3263 31.2812 74.9787 32.3215C73.6388 33.3618 71.8253 33.8819 69.5382 33.8819Z" fill="#E7FBF8"/>
<line y1="-0.239312" x2="33.1816" y2="-0.239312" transform="matrix(1 -1.22931e-07 -6.77724e-08 -1 1 42.3886)" stroke="url(#paint0_linear_415_181)" stroke-width="0.478623"/>
<line y1="-0.239312" x2="33.1816" y2="-0.239312" transform="matrix(1 -1.23008e-07 -6.77492e-08 -1 1 38.9641)" stroke="url(#paint1_linear_415_181)" stroke-width="0.478623"/>
<line y1="-0.239312" x2="33.1816" y2="-0.239312" transform="matrix(1 -1.22931e-07 -6.77724e-08 -1 1 40.6765)" stroke="url(#paint2_linear_415_181)" stroke-width="0.478623"/>
<path d="M38.6736 40.3856C38.6736 40.051 38.7338 39.7502 38.8541 39.4832C38.9744 39.2162 39.1361 39.0019 39.3392 38.8402C39.5422 38.6747 39.7678 38.5507 40.016 38.4679C40.2642 38.3814 40.5236 38.3382 40.7944 38.3382C41.2268 38.3382 41.6254 38.4247 41.9901 38.5977V39.2237C41.6855 39.0282 41.317 38.9304 40.8846 38.9304C40.4559 38.9304 40.0893 39.0526 39.7847 39.2971C39.4839 39.5415 39.3335 39.9043 39.3335 40.3856C39.3335 40.6564 39.3786 40.8914 39.4689 41.0907C39.5591 41.2862 39.6813 41.4366 39.8355 41.5419C39.9897 41.6472 40.1514 41.7243 40.3206 41.7731C40.4935 41.822 40.6759 41.8465 40.8677 41.8465C41.1008 41.8465 41.2982 41.8089 41.4599 41.7337V40.239H42.086V42.168C41.6912 42.3447 41.2719 42.4331 40.8282 42.4331C40.5424 42.4331 40.2754 42.3955 40.0273 42.3203C39.7791 42.2413 39.5516 42.1228 39.3448 41.9649C39.138 41.807 38.9744 41.5927 38.8541 41.3219C38.7338 41.0512 38.6736 40.7391 38.6736 40.3856ZM48.0427 42.3597H47.3997V38.4115H48.979C49.1745 38.4115 49.3569 38.4322 49.5261 38.4736C49.6991 38.5149 49.8608 38.5826 50.0112 38.6766C50.1616 38.7669 50.28 38.8947 50.3665 39.0602C50.453 39.2256 50.4963 39.4211 50.4963 39.6468C50.4963 39.9777 50.4079 40.239 50.2312 40.4308C50.0544 40.6188 49.8232 40.7466 49.5374 40.8143L50.8008 42.3597H50.0281L48.8436 40.882H48.0427V42.3597ZM48.0427 38.9981V40.3123H49.0072C49.2479 40.3123 49.4472 40.2615 49.6051 40.16C49.763 40.0585 49.842 39.8912 49.842 39.658C49.842 39.4249 49.763 39.2576 49.6051 39.156C49.4472 39.0508 49.2479 38.9981 49.0072 38.9981H48.0427ZM55.6931 41.1471C55.6067 40.9064 55.5634 40.6526 55.5634 40.3856C55.5634 40.1187 55.6067 39.8648 55.6931 39.6242C55.7834 39.3835 55.9112 39.1673 56.0767 38.9756C56.2421 38.78 56.4602 38.6259 56.731 38.5131C57.0017 38.3965 57.3044 38.3382 57.639 38.3382C57.9737 38.3382 58.2745 38.3965 58.5415 38.5131C58.8122 38.6259 59.0303 38.78 59.1958 38.9756C59.365 39.1673 59.4928 39.3835 59.5793 39.6242C59.6696 39.8648 59.7147 40.1187 59.7147 40.3856C59.7147 40.6526 59.6696 40.9064 59.5793 41.1471C59.4928 41.3877 59.365 41.6058 59.1958 41.8014C59.0303 41.9931 58.8122 42.1473 58.5415 42.2639C58.2745 42.3767 57.9737 42.4331 57.639 42.4331C57.3044 42.4331 57.0017 42.3767 56.731 42.2639C56.4602 42.1473 56.2421 41.9931 56.0767 41.8014C55.9112 41.6058 55.7834 41.3877 55.6931 41.1471ZM58.6881 41.4122C58.9363 41.1339 59.0604 40.7917 59.0604 40.3856C59.0604 39.9795 58.9363 39.6374 58.6881 39.3591C58.4437 39.0808 58.094 38.9417 57.639 38.9417C57.1878 38.9417 56.8381 39.0808 56.5899 39.3591C56.3418 39.6374 56.2177 39.9795 56.2177 40.3856C56.2177 40.7917 56.3418 41.1339 56.5899 41.4122C56.8381 41.6904 57.1878 41.8296 57.639 41.8296C58.094 41.8296 58.4437 41.6904 58.6881 41.4122ZM67.6247 38.4115H68.2677V40.8989C68.2677 41.1734 68.2207 41.414 68.1267 41.6209C68.0364 41.8239 67.9105 41.9837 67.7488 42.1003C67.5908 42.2131 67.4141 42.2977 67.2186 42.3541C67.0268 42.4067 66.8162 42.4331 66.5869 42.4331C66.3575 42.4331 66.145 42.4067 65.9495 42.3541C65.754 42.2977 65.5754 42.2131 65.4137 42.1003C65.252 41.9837 65.1241 41.8239 65.0301 41.6209C64.9399 41.414 64.8948 41.1734 64.8948 40.8989V38.4115H65.5378V40.8651C65.5378 41.5118 65.8875 41.8352 66.5869 41.8352C67.2787 41.8352 67.6247 41.5118 67.6247 40.8651V38.4115ZM73.6988 38.4115H75.1088C76.2331 38.4115 76.7953 38.8439 76.7953 39.7088C76.7953 40.5736 76.2331 41.0061 75.1088 41.0061H74.3418V42.3597H73.6988V38.4115ZM75.8703 40.2672C76.0508 40.1619 76.141 39.9758 76.141 39.7088C76.141 39.4418 76.0508 39.2576 75.8703 39.156C75.6936 39.0508 75.451 38.9981 75.1427 38.9981H74.3418V40.4195H75.1427C75.451 40.4195 75.6936 40.3687 75.8703 40.2672Z" fill="#E7FBF8"/>
<path d="M2.54688 54.7969H10.7109V56.3984H4.14844V59.6016H9.75V61.2031H4.14844V66H2.54688V54.7969ZM19.9922 64.4609C19.9922 64.6745 19.9505 64.875 19.8672 65.0625C19.7891 65.25 19.6797 65.4141 19.5391 65.5547C19.4036 65.6901 19.2422 65.7995 19.0547 65.8828C18.8724 65.9609 18.6745 66 18.4609 66H14.3281C14.1198 66 13.9219 65.9609 13.7344 65.8828C13.5469 65.7995 13.3828 65.6901 13.2422 65.5547C13.1068 65.4141 12.9974 65.25 12.9141 65.0625C12.8359 64.875 12.7969 64.6745 12.7969 64.4609V59.2188C12.7969 59.0052 12.8359 58.8047 12.9141 58.6172C12.9974 58.4297 13.1068 58.2682 13.2422 58.1328C13.3828 57.9922 13.5469 57.8828 13.7344 57.8047C13.9219 57.7214 14.1198 57.6797 14.3281 57.6797H18.4609C18.6745 57.6797 18.8724 57.7214 19.0547 57.8047C19.2422 57.8828 19.4036 57.9922 19.5391 58.1328C19.6797 58.2682 19.7891 58.4297 19.8672 58.6172C19.9505 58.8047 19.9922 59.0052 19.9922 59.2188V64.4609ZM14.3281 59.2188V64.4609H18.4609V59.2188H14.3281ZM22.5625 57.6797H24.0938V64.4609H28.3828V57.6797H29.9219V66H28.3828V64.5938C28.3672 64.7865 28.3151 64.9688 28.2266 65.1406C28.138 65.3125 28.0234 65.4635 27.8828 65.5938C27.7474 65.7188 27.5911 65.8177 27.4141 65.8906C27.237 65.9635 27.0495 66 26.8516 66H24.0938C23.8854 66 23.6875 65.9609 23.5 65.8828C23.3125 65.7995 23.1484 65.6901 23.0078 65.5547C22.8724 65.4141 22.763 65.25 22.6797 65.0625C22.6016 64.875 22.5625 64.6745 22.5625 64.4609V57.6797ZM39.8438 66H38.3047V59.2188H34.0156V66H32.4844V57.6797H34.0156V59.1484C34.026 58.9453 34.0729 58.7552 34.1562 58.5781C34.2396 58.3958 34.349 58.2396 34.4844 58.1094C34.625 57.974 34.7865 57.8698 34.9688 57.7969C35.151 57.7188 35.3464 57.6797 35.5547 57.6797H38.3047C38.5182 57.6797 38.7188 57.7214 38.9062 57.8047C39.0938 57.8828 39.2552 57.9922 39.3906 58.1328C39.5312 58.2682 39.6406 58.4297 39.7188 58.6172C39.8021 58.8047 39.8438 59.0052 39.8438 59.2188V66ZM42.4062 59.2188C42.4062 59.0052 42.4453 58.8047 42.5234 58.6172C42.6068 58.4297 42.7161 58.2682 42.8516 58.1328C42.9922 57.9922 43.1562 57.8828 43.3438 57.8047C43.5312 57.7214 43.7292 57.6797 43.9375 57.6797H48.2266V54.4766H49.7656V66H48.2266V64.5938C48.2109 64.7865 48.1589 64.9688 48.0703 65.1406C47.9818 65.3125 47.8672 65.4635 47.7266 65.5938C47.5911 65.7188 47.4349 65.8177 47.2578 65.8906C47.0807 65.9635 46.8932 66 46.6953 66H43.9375C43.7292 66 43.5312 65.9609 43.3438 65.8828C43.1562 65.7995 42.9922 65.6901 42.8516 65.5547C42.7161 65.4141 42.6068 65.25 42.5234 65.0625C42.4453 64.875 42.4062 64.6745 42.4062 64.4609V59.2188ZM43.9375 64.4609H48.2266V59.2188H43.9375V64.4609ZM53.9453 57.6797V66H52.4062V57.6797H53.9453ZM52.3281 54.4766H54.0234V56.0781H52.3281V54.4766ZM63.9531 66H62.4141V59.2188H58.125V66H56.5938V57.6797H58.125V59.1484C58.1354 58.9453 58.1823 58.7552 58.2656 58.5781C58.349 58.3958 58.4583 58.2396 58.5938 58.1094C58.7344 57.974 58.8958 57.8698 59.0781 57.7969C59.2604 57.7188 59.4557 57.6797 59.6641 57.6797H62.4141C62.6276 57.6797 62.8281 57.7214 63.0156 57.8047C63.2031 57.8828 63.3646 57.9922 63.5 58.1328C63.6406 58.2682 63.75 58.4297 63.8281 58.6172C63.9115 58.8047 63.9531 59.0052 63.9531 59.2188V66ZM66.5156 59.2188C66.5156 59.0052 66.5547 58.8047 66.6328 58.6172C66.7161 58.4297 66.8255 58.2682 66.9609 58.1328C67.1016 57.9922 67.2656 57.8828 67.4531 57.8047C67.6406 57.7214 67.8385 57.6797 68.0469 57.6797H70.8047C71.0078 57.6797 71.2005 57.7188 71.3828 57.7969C71.5651 57.8698 71.724 57.974 71.8594 58.1094C72 58.2396 72.112 58.3958 72.1953 58.5781C72.2839 58.7552 72.3307 58.9453 72.3359 59.1484V57.6797H73.875V67.8203C73.875 68.0339 73.8333 68.2344 73.75 68.4219C73.6719 68.6094 73.5625 68.7708 73.4219 68.9062C73.2865 69.0469 73.125 69.1562 72.9375 69.2344C72.75 69.3177 72.5495 69.3594 72.3359 69.3594H67.4766V67.8203H72.3359V65.6797H68.0469C67.8385 65.6797 67.6406 65.6406 67.4531 65.5625C67.2656 65.4792 67.1016 65.3698 66.9609 65.2344C66.8255 65.0938 66.7161 64.9297 66.6328 64.7422C66.5547 64.5547 66.5156 64.3542 66.5156 64.1406V59.2188ZM72.3359 64.1406V59.2188H68.0469V64.1406H72.3359ZM81.3906 66V54.7969H87.5234C89.3359 54.7969 90.2422 55.7057 90.2422 57.5234V59.1172C90.2422 60.9349 89.3359 61.8438 87.5234 61.8438H82.9922V66H81.3906ZM82.9922 60.2422H87.4375C87.8646 60.2422 88.1719 60.1484 88.3594 59.9609C88.5469 59.7734 88.6406 59.4661 88.6406 59.0391V57.6016C88.6406 57.1745 88.5469 56.8672 88.3594 56.6797C88.1719 56.4922 87.8646 56.3984 87.4375 56.3984H82.9922V60.2422ZM92.3281 62.3672C92.3281 62.1536 92.3672 61.9557 92.4453 61.7734C92.5286 61.5859 92.638 61.4219 92.7734 61.2812C92.9141 61.1406 93.0781 61.0312 93.2656 60.9531C93.4531 60.8698 93.651 60.8281 93.8594 60.8281H97.8281V59.2188H92.8047V57.6797H97.8281C98.0417 57.6797 98.2422 57.7214 98.4297 57.8047C98.6172 57.8828 98.7786 57.9922 98.9141 58.1328C99.0547 58.2682 99.1641 58.4297 99.2422 58.6172C99.3255 58.8047 99.3672 59.0052 99.3672 59.2188V66H97.8281V64.5938C97.8125 64.7865 97.7604 64.9688 97.6719 65.1406C97.5833 65.3125 97.4688 65.4635 97.3281 65.5938C97.1927 65.7188 97.0365 65.8177 96.8594 65.8906C96.6823 65.9635 96.4948 66 96.2969 66H93.8594C93.651 66 93.4531 65.9609 93.2656 65.8828C93.0781 65.7995 92.9141 65.6901 92.7734 65.5547C92.638 65.4141 92.5286 65.25 92.4453 65.0625C92.3672 64.875 92.3281 64.6745 92.3281 64.4609V62.3672ZM93.8594 64.4609H97.8281V62.3672H93.8594V64.4609ZM103.469 59.2188V66H101.938V57.6797H103.469V59.1484C103.479 58.9453 103.526 58.7552 103.609 58.5781C103.693 58.3958 103.802 58.2396 103.938 58.1094C104.078 57.974 104.24 57.8698 104.422 57.7969C104.604 57.7188 104.799 57.6797 105.008 57.6797H106.641C106.854 57.6797 107.052 57.7214 107.234 57.8047C107.422 57.8828 107.586 57.9922 107.727 58.1328C107.867 58.2682 107.977 58.4297 108.055 58.6172C108.138 58.8047 108.18 59.0052 108.18 59.2188V60.625H106.641V59.2188H103.469ZM109.609 57.6797H111.641V55.1172H113.18V57.6797H115.914V59.2188H113.18V64.4609H115.914V66H113.18C112.971 66 112.773 65.9609 112.586 65.8828C112.398 65.7995 112.234 65.6901 112.094 65.5547C111.953 65.4141 111.841 65.25 111.758 65.0625C111.68 64.875 111.641 64.6745 111.641 64.4609V59.2188H109.609V57.6797ZM125.844 66H124.305V59.2188H120.016V66H118.484V57.6797H120.016V59.1484C120.026 58.9453 120.073 58.7552 120.156 58.5781C120.24 58.3958 120.349 58.2396 120.484 58.1094C120.625 57.974 120.786 57.8698 120.969 57.7969C121.151 57.7188 121.346 57.6797 121.555 57.6797H124.305C124.518 57.6797 124.719 57.7214 124.906 57.8047C125.094 57.8828 125.255 57.9922 125.391 58.1328C125.531 58.2682 125.641 58.4297 125.719 58.6172C125.802 58.8047 125.844 59.0052 125.844 59.2188V66ZM135.445 62.625H129.938V64.4609H135.445V66H129.938C129.729 66 129.531 65.9609 129.344 65.8828C129.156 65.7995 128.992 65.6901 128.852 65.5547C128.716 65.4141 128.607 65.25 128.523 65.0625C128.445 64.875 128.406 64.6745 128.406 64.4609V59.2188C128.406 59.0052 128.445 58.8047 128.523 58.6172C128.607 58.4297 128.716 58.2682 128.852 58.1328C128.992 57.9922 129.156 57.8828 129.344 57.8047C129.531 57.7214 129.729 57.6797 129.938 57.6797H133.906C134.12 57.6797 134.32 57.7214 134.508 57.8047C134.695 57.8828 134.857 57.9922 134.992 58.1328C135.133 58.2682 135.242 58.4297 135.32 58.6172C135.404 58.8047 135.445 59.0052 135.445 59.2188V62.625ZM129.938 59.2188V61.0859H133.906V59.2188H129.938ZM139.547 59.2188V66H138.016V57.6797H139.547V59.1484C139.557 58.9453 139.604 58.7552 139.688 58.5781C139.771 58.3958 139.88 58.2396 140.016 58.1094C140.156 57.974 140.318 57.8698 140.5 57.7969C140.682 57.7188 140.878 57.6797 141.086 57.6797H142.719C142.932 57.6797 143.13 57.7214 143.312 57.8047C143.5 57.8828 143.664 57.9922 143.805 58.1328C143.945 58.2682 144.055 58.4297 144.133 58.6172C144.216 58.8047 144.258 59.0052 144.258 59.2188V60.625H142.719V59.2188H139.547Z" fill="#1CE9E0"/>
<defs>
<linearGradient id="paint0_linear_415_181" x1="33.7537" y1="-0.500001" x2="-2.81694e-08" y2="-0.499999" gradientUnits="userSpaceOnUse">
<stop stop-color="#FFC500"/>
<stop offset="1" stop-color="#C31100"/>
</linearGradient>
<linearGradient id="paint1_linear_415_181" x1="33.7537" y1="-0.500001" x2="-2.81694e-08" y2="-0.499999" gradientUnits="userSpaceOnUse">
<stop stop-color="#62F11E"/>
<stop offset="1" stop-color="#005F15"/>
</linearGradient>
<linearGradient id="paint2_linear_415_181" x1="33.1816" y1="-0.499998" x2="-2.22855e-08" y2="-0.499997" gradientUnits="userSpaceOnUse">
<stop stop-color="#15C0D8"/>
<stop offset="1" stop-color="#231071"/>
</linearGradient>
</defs>
</svg>
