<svg width="205" height="60" viewBox="0 0 205 60" fill="none" xmlns="http://www.w3.org/2000/svg">
<path d="M77.8294 11.6351L87.8797 37.6968H84.154L81.8459 31.6993H70.0872L67.7791 37.6968H64.0534L74.1037 11.6351H77.8294ZM71.5048 27.9736H80.4101L75.9756 16.4876L71.5048 27.9736ZM96.0762 11.6351V37.6968H92.3505V11.6351H96.0762ZM102.419 32.2627H107.853V37.6968H102.419V32.2627ZM117.921 11.6351V22.8849L130.353 11.6351H135.605L121.502 24.4115L136.168 37.6968H130.916L117.921 25.9745V37.6968H114.196V11.6351H117.921ZM143.292 11.6351V37.6968H139.567V11.6351H143.292ZM163.248 33.9711C164.98 33.9711 166.313 33.5046 167.246 32.5717C168.179 31.6387 168.645 30.306 168.645 28.5734V20.7585C168.645 19.9104 168.524 19.1531 168.282 18.4868C168.04 17.8204 167.682 17.257 167.21 16.7966C166.749 16.324 166.186 15.9666 165.519 15.7243C164.853 15.482 164.096 15.3608 163.248 15.3608H153.724V33.9711H163.248ZM149.999 37.6968V11.6351H163.248C164.641 11.6351 165.895 11.8532 167.01 12.2894C168.136 12.7135 169.094 13.3253 169.881 14.125C170.681 14.9125 171.293 15.8697 171.717 16.9965C172.153 18.1233 172.371 19.3773 172.371 20.7585V28.5734C172.371 29.9546 172.153 31.2086 171.717 32.3354C171.293 33.4622 170.681 34.4254 169.881 35.2251C169.094 36.0126 168.136 36.6245 167.01 37.0607C165.895 37.4847 164.641 37.6968 163.248 37.6968H149.999ZM200.686 33.9711C200.686 34.48 200.589 34.9646 200.395 35.425C200.202 35.8733 199.935 36.2671 199.596 36.6063C199.257 36.9456 198.857 37.2121 198.396 37.406C197.948 37.5998 197.469 37.6968 196.961 37.6968H182.076C181.567 37.6968 181.082 37.5998 180.622 37.406C180.174 37.2121 179.78 36.9456 179.441 36.6063C179.102 36.2671 178.835 35.8733 178.641 35.425C178.447 34.9646 178.35 34.48 178.35 33.9711V15.3608C178.35 14.8519 178.447 14.3734 178.641 13.9251C178.835 13.4647 179.102 13.0709 179.441 12.7437C179.78 12.4045 180.174 12.1379 180.622 11.9441C181.082 11.7381 181.567 11.6351 182.076 11.6351H196.961C197.469 11.6351 197.948 11.7381 198.396 11.9441C198.857 12.1379 199.257 12.4045 199.596 12.7437C199.935 13.0709 200.202 13.4647 200.395 13.9251C200.589 14.3734 200.686 14.8519 200.686 15.3608V33.9711ZM182.076 15.3608V33.9711H196.961V15.3608H182.076Z" fill="#E7FBF8"/>
<path d="M64.378 45.5639C64.378 45.3458 64.4195 45.1407 64.5026 44.9486C64.5857 44.7513 64.6999 44.5825 64.8453 44.4423C64.9907 44.2969 65.1595 44.1827 65.3516 44.0996C65.5489 44.0113 65.7566 43.9672 65.9747 43.9672H72.0345C72.2526 43.9672 72.4577 44.0113 72.6498 44.0996C72.8471 44.1827 73.0185 44.2969 73.1639 44.4423C73.3093 44.5825 73.4235 44.7513 73.5066 44.9486C73.5897 45.1407 73.6312 45.3458 73.6312 45.5639V47.0049H72.0345V45.5639H65.9747V53.5398H72.0345V50.8292H69.0046V49.2325H73.6312V53.5398C73.6312 53.7578 73.5897 53.9655 73.5066 54.1629C73.4235 54.355 73.3093 54.5237 73.1639 54.6691C73.0185 54.8145 72.8471 54.9288 72.6498 55.0119C72.4577 55.0949 72.2526 55.1365 72.0345 55.1365H65.9747C65.7566 55.1365 65.5489 55.0949 65.3516 55.0119C65.1595 54.9288 64.9907 54.8145 64.8453 54.6691C64.6999 54.5237 64.5857 54.355 64.5026 54.1629C64.4195 53.9655 64.378 53.7578 64.378 53.5398V45.5639ZM83.5153 53.6021C83.5153 53.815 83.4738 54.0149 83.3907 54.2018C83.3128 54.3887 83.2037 54.5523 83.0635 54.6925C82.9285 54.8275 82.7676 54.9366 82.5806 55.0196C82.3989 55.0975 82.2016 55.1365 81.9887 55.1365H77.8684C77.6606 55.1365 77.4633 55.0975 77.2764 55.0196C77.0895 54.9366 76.9259 54.8275 76.7857 54.6925C76.6507 54.5523 76.5416 54.3887 76.4586 54.2018C76.3807 54.0149 76.3417 53.815 76.3417 53.6021V48.3757C76.3417 48.1628 76.3807 47.9629 76.4586 47.776C76.5416 47.589 76.6507 47.4281 76.7857 47.2931C76.9259 47.1529 77.0895 47.0438 77.2764 46.9659C77.4633 46.8828 77.6606 46.8413 77.8684 46.8413H81.9887C82.2016 46.8413 82.3989 46.8828 82.5806 46.9659C82.7676 47.0438 82.9285 47.1529 83.0635 47.2931C83.2037 47.4281 83.3128 47.589 83.3907 47.776C83.4738 47.9629 83.5153 48.1628 83.5153 48.3757V53.6021ZM77.8684 48.3757V53.6021H81.9887V48.3757H77.8684ZM90.8602 51.5146C90.8602 51.3017 90.8992 51.1044 90.9771 50.9227C91.0601 50.7357 91.1692 50.5722 91.3042 50.432C91.4444 50.2918 91.608 50.1827 91.7949 50.1048C91.9818 50.0218 92.1792 49.9802 92.3869 49.9802H96.3436V48.3757H91.3354V46.8413H96.3436C96.5565 46.8413 96.7564 46.8828 96.9434 46.9659C97.1303 47.0438 97.2913 47.1529 97.4263 47.2931C97.5665 47.4281 97.6755 47.589 97.7534 47.776C97.8365 47.9629 97.878 48.1628 97.878 48.3757V55.1365H96.3436V53.7345C96.328 53.9266 96.2761 54.1083 96.1878 54.2797C96.0996 54.4511 95.9853 54.6016 95.8451 54.7315C95.7101 54.8561 95.5543 54.9547 95.3778 55.0274C95.2012 55.1001 95.0143 55.1365 94.817 55.1365H92.3869C92.1792 55.1365 91.9818 55.0975 91.7949 55.0196C91.608 54.9366 91.4444 54.8275 91.3042 54.6925C91.1692 54.5523 91.0601 54.3887 90.9771 54.2018C90.8992 54.0149 90.8602 53.815 90.8602 53.6021V51.5146ZM92.3869 53.6021H96.3436V51.5146H92.3869V53.6021ZM102.053 46.8413V55.1365H100.518V46.8413H102.053ZM100.441 43.6479H102.131V45.2446H100.441V43.6479ZM116.813 55.1365H115.278V48.3757H111.002V55.1365H109.476V46.8413H111.002V48.3056C111.013 48.1031 111.059 47.9136 111.143 47.737C111.226 47.5553 111.335 47.3995 111.47 47.2697C111.61 47.1347 111.771 47.0308 111.953 46.9581C112.134 46.8802 112.329 46.8413 112.537 46.8413H115.278C115.491 46.8413 115.691 46.8828 115.878 46.9659C116.065 47.0438 116.226 47.1529 116.361 47.2931C116.501 47.4281 116.61 47.589 116.688 47.776C116.771 47.9629 116.813 48.1628 116.813 48.3757V55.1365ZM126.541 53.6021C126.541 53.815 126.5 54.0149 126.417 54.2018C126.339 54.3887 126.23 54.5523 126.089 54.6925C125.954 54.8275 125.793 54.9366 125.607 55.0196C125.425 55.0975 125.227 55.1365 125.015 55.1365H120.894C120.687 55.1365 120.489 55.0975 120.302 55.0196C120.115 54.9366 119.952 54.8275 119.812 54.6925C119.677 54.5523 119.568 54.3887 119.484 54.2018C119.407 54.0149 119.368 53.815 119.368 53.6021V48.3757C119.368 48.1628 119.407 47.9629 119.484 47.776C119.568 47.589 119.677 47.4281 119.812 47.2931C119.952 47.1529 120.115 47.0438 120.302 46.9659C120.489 46.8828 120.687 46.8413 120.894 46.8413H125.015C125.227 46.8413 125.425 46.8828 125.607 46.9659C125.793 47.0438 125.954 47.1529 126.089 47.2931C126.23 47.4281 126.339 47.589 126.417 47.776C126.5 47.9629 126.541 48.1628 126.541 48.3757V53.6021ZM120.894 48.3757V53.6021H125.015V48.3757H120.894ZM130.825 55.1365L128.146 46.8413H129.696L131.658 53.0958L133.489 46.8413H135.054L136.885 53.0958L138.848 46.8413H140.398L137.718 55.1365H136.122L134.268 49.0456L132.422 55.1365H130.825Z" fill="#E7FBF8"/>
<path d="M10.9931 6.41684L16.5977 17.4446H13.0948L13.9122 20.4801L8.30755 18.5973L10.1368 23.554L6.5561 21.4023L3.9873 16.6377L4.37652 10.4514L5.23278 0L10.1368 7.87696L10.9931 6.41684Z" fill="#E7FBF8"/>
<path d="M39.7159 6.41684L34.1112 17.4446H37.6141L36.7968 20.4801L42.4014 18.5973L40.5721 23.554L44.1529 21.4023L46.7217 16.6377L46.3325 10.4514L45.4762 0L40.5721 7.87696L39.7159 6.41684Z" fill="#E7FBF8"/>
<path d="M18.6043 44.8078L17.2031 48.8423L14.79 46.0758L16.1133 49.6877L9.53567 44.1546L4.08672 41.926L7.93991 41.4265L5.25435 40.1585L0 39.0057L3.23045 37.2766L7.12256 36.585L4.74838 34.8559H11.0925L8.91294 31.2825L16.4463 32.5628L18.0594 31.782L21.2898 39.0057L22.1072 43.4245L20.5114 41.4265L18.6043 44.8078Z" fill="#E7FBF8"/>
<path d="M32.0905 44.8078L33.4917 48.8423L35.9048 46.0758L34.5815 49.6877L41.1592 44.1546L46.6081 41.926L42.7549 41.4265L45.4405 40.1585L50.6948 39.0057L47.4644 37.2766L43.5723 36.585L45.9464 34.8559H39.6023L41.7819 31.2825L34.2485 32.5628L32.6354 31.782L29.405 39.0057L28.5876 43.4245L30.1834 41.4265L32.0905 44.8078Z" fill="#E7FBF8"/>
<path d="M21.7337 52.7564C21.796 52.9101 24.3544 54.2421 25.4312 54.8313L29.1287 52.7564L29.8293 50.8352L29.1287 47.9149L25.4312 46.4164L21.7337 47.9149L20.8774 50.8352C21.1369 51.4115 21.6714 52.6027 21.7337 52.7564Z" fill="#E7FBF8"/>
</svg>
