<svg width="205" height="60" viewBox="0 0 205 60" fill="none" xmlns="http://www.w3.org/2000/svg">
<path d="M77.8294 11.6351L87.8797 37.6968H84.154L81.8459 31.6993H70.0872L67.7791 37.6968H64.0534L74.1037 11.6351H77.8294ZM71.5048 27.9736H80.4101L75.9756 16.4876L71.5048 27.9736ZM96.0762 11.6351V37.6968H92.3505V11.6351H96.0762ZM102.419 32.2627H107.853V37.6968H102.419V32.2627ZM117.921 11.6351V22.8849L130.353 11.6351H135.605L121.502 24.4115L136.168 37.6968H130.916L117.921 25.9745V37.6968H114.196V11.6351H117.921ZM143.292 11.6351V37.6968H139.567V11.6351H143.292ZM163.248 33.9711C164.98 33.9711 166.313 33.5046 167.246 32.5717C168.179 31.6387 168.645 30.306 168.645 28.5734V20.7585C168.645 19.9104 168.524 19.1531 168.282 18.4868C168.04 17.8204 167.682 17.257 167.21 16.7966C166.749 16.324 166.186 15.9666 165.519 15.7243C164.853 15.482 164.096 15.3608 163.248 15.3608H153.724V33.9711H163.248ZM149.999 37.6968V11.6351H163.248C164.641 11.6351 165.895 11.8532 167.01 12.2894C168.136 12.7135 169.094 13.3253 169.881 14.125C170.681 14.9125 171.293 15.8697 171.717 16.9965C172.153 18.1233 172.371 19.3773 172.371 20.7585V28.5734C172.371 29.9546 172.153 31.2086 171.717 32.3354C171.293 33.4622 170.681 34.4254 169.881 35.2251C169.094 36.0126 168.136 36.6245 167.01 37.0607C165.895 37.4847 164.641 37.6968 163.248 37.6968H149.999ZM200.686 33.9711C200.686 34.48 200.589 34.9646 200.395 35.425C200.202 35.8733 199.935 36.2671 199.596 36.6063C199.257 36.9456 198.857 37.2121 198.396 37.406C197.948 37.5998 197.469 37.6968 196.961 37.6968H182.076C181.567 37.6968 181.082 37.5998 180.622 37.406C180.174 37.2121 179.78 36.9456 179.441 36.6063C179.102 36.2671 178.835 35.8733 178.641 35.425C178.447 34.9646 178.35 34.48 178.35 33.9711V15.3608C178.35 14.8519 178.447 14.3734 178.641 13.9251C178.835 13.4647 179.102 13.0709 179.441 12.7437C179.78 12.4045 180.174 12.1379 180.622 11.9441C181.082 11.7381 181.567 11.6351 182.076 11.6351H196.961C197.469 11.6351 197.948 11.7381 198.396 11.9441C198.857 12.1379 199.257 12.4045 199.596 12.7437C199.935 13.0709 200.202 13.4647 200.395 13.9251C200.589 14.3734 200.686 14.8519 200.686 15.3608V33.9711ZM182.076 15.3608V33.9711H196.961V15.3608H182.076Z" fill="#E7FBF8"/>
<path d="M64.378 45.5642C64.378 45.3461 64.4195 45.141 64.5026 44.9488C64.5857 44.7515 64.6999 44.5828 64.8453 44.4426C64.9907 44.2972 65.1595 44.1829 65.3516 44.0999C65.5489 44.0116 65.7566 43.9674 65.9747 43.9674H72.0345C72.2526 43.9674 72.4577 44.0116 72.6498 44.0999C72.8471 44.1829 73.0185 44.2972 73.1639 44.4426C73.3093 44.5828 73.4235 44.7515 73.5066 44.9488C73.5897 45.141 73.6312 45.3461 73.6312 45.5642V47.0051H72.0345V45.5642H65.9747V53.54H72.0345V50.8295H69.0046V49.2327H73.6312V53.54C73.6312 53.7581 73.5897 53.9658 73.5066 54.1631C73.4235 54.3552 73.3093 54.524 73.1639 54.6694C73.0185 54.8148 72.8471 54.929 72.6498 55.0121C72.4577 55.0952 72.2526 55.1367 72.0345 55.1367H65.9747C65.7566 55.1367 65.5489 55.0952 65.3516 55.0121C65.1595 54.929 64.9907 54.8148 64.8453 54.6694C64.6999 54.524 64.5857 54.3552 64.5026 54.1631C64.4195 53.9658 64.378 53.7581 64.378 53.54V45.5642ZM83.5153 53.6023C83.5153 53.8152 83.4738 54.0151 83.3907 54.2021C83.3128 54.389 83.2037 54.5526 83.0635 54.6928C82.9285 54.8278 82.7676 54.9368 82.5806 55.0199C82.3989 55.0978 82.2016 55.1367 81.9887 55.1367H77.8684C77.6606 55.1367 77.4633 55.0978 77.2764 55.0199C77.0895 54.9368 76.9259 54.8278 76.7857 54.6928C76.6507 54.5526 76.5416 54.389 76.4586 54.2021C76.3807 54.0151 76.3417 53.8152 76.3417 53.6023V48.376C76.3417 48.1631 76.3807 47.9631 76.4586 47.7762C76.5416 47.5893 76.6507 47.4283 76.7857 47.2933C76.9259 47.1531 77.0895 47.0441 77.2764 46.9662C77.4633 46.8831 77.6606 46.8415 77.8684 46.8415H81.9887C82.2016 46.8415 82.3989 46.8831 82.5806 46.9662C82.7676 47.0441 82.9285 47.1531 83.0635 47.2933C83.2037 47.4283 83.3128 47.5893 83.3907 47.7762C83.4738 47.9631 83.5153 48.1631 83.5153 48.376V53.6023ZM77.8684 48.376V53.6023H81.9887V48.376H77.8684ZM90.8602 51.5149C90.8602 51.302 90.8992 51.1047 90.9771 50.9229C91.0601 50.736 91.1692 50.5724 91.3042 50.4322C91.4444 50.292 91.608 50.183 91.7949 50.1051C91.9818 50.022 92.1792 49.9805 92.3869 49.9805H96.3436V48.376H91.3354V46.8415H96.3436C96.5565 46.8415 96.7564 46.8831 96.9434 46.9662C97.1303 47.0441 97.2913 47.1531 97.4263 47.2933C97.5665 47.4283 97.6755 47.5893 97.7534 47.7762C97.8365 47.9631 97.878 48.1631 97.878 48.376V55.1367H96.3436V53.7347C96.328 53.9268 96.2761 54.1086 96.1878 54.2799C96.0996 54.4513 95.9853 54.6019 95.8451 54.7317C95.7101 54.8563 95.5543 54.955 95.3778 55.0277C95.2012 55.1004 95.0143 55.1367 94.817 55.1367H92.3869C92.1792 55.1367 91.9818 55.0978 91.7949 55.0199C91.608 54.9368 91.4444 54.8278 91.3042 54.6928C91.1692 54.5526 91.0601 54.389 90.9771 54.2021C90.8992 54.0151 90.8602 53.8152 90.8602 53.6023V51.5149ZM92.3869 53.6023H96.3436V51.5149H92.3869V53.6023ZM102.053 46.8415V55.1367H100.518V46.8415H102.053ZM100.441 43.6481H102.131V45.2448H100.441V43.6481ZM116.813 55.1367H115.278V48.376H111.002V55.1367H109.476V46.8415H111.002V48.3059C111.013 48.1033 111.059 47.9138 111.143 47.7373C111.226 47.5555 111.335 47.3997 111.47 47.2699C111.61 47.1349 111.771 47.0311 111.953 46.9584C112.134 46.8805 112.329 46.8415 112.537 46.8415H115.278C115.491 46.8415 115.691 46.8831 115.878 46.9662C116.065 47.0441 116.226 47.1531 116.361 47.2933C116.501 47.4283 116.61 47.5893 116.688 47.7762C116.771 47.9631 116.813 48.1631 116.813 48.376V55.1367ZM126.541 53.6023C126.541 53.8152 126.5 54.0151 126.417 54.2021C126.339 54.389 126.23 54.5526 126.089 54.6928C125.954 54.8278 125.793 54.9368 125.607 55.0199C125.425 55.0978 125.227 55.1367 125.015 55.1367H120.894C120.687 55.1367 120.489 55.0978 120.302 55.0199C120.115 54.9368 119.952 54.8278 119.812 54.6928C119.677 54.5526 119.568 54.389 119.484 54.2021C119.407 54.0151 119.368 53.8152 119.368 53.6023V48.376C119.368 48.1631 119.407 47.9631 119.484 47.7762C119.568 47.5893 119.677 47.4283 119.812 47.2933C119.952 47.1531 120.115 47.0441 120.302 46.9662C120.489 46.8831 120.687 46.8415 120.894 46.8415H125.015C125.227 46.8415 125.425 46.8831 125.607 46.9662C125.793 47.0441 125.954 47.1531 126.089 47.2933C126.23 47.4283 126.339 47.5893 126.417 47.7762C126.5 47.9631 126.541 48.1631 126.541 48.376V53.6023ZM120.894 48.376V53.6023H125.015V48.376H120.894ZM130.825 55.1367L128.146 46.8415H129.696L131.658 53.096L133.489 46.8415H135.054L136.885 53.096L138.848 46.8415H140.398L137.718 55.1367H136.122L134.268 49.0458L132.422 55.1367H130.825Z" fill="#E7FBF8"/>
<path d="M10.9931 6.41684L16.5977 17.4446H13.0948L13.9122 20.4801L8.30755 18.5973L10.1368 23.554L6.5561 21.4023L3.9873 16.6377L4.37652 10.4514L5.23278 0L10.1368 7.87696L10.9931 6.41684Z" fill="#E7FBF8"/>
<path d="M39.7159 6.41684L34.1112 17.4446H37.6141L36.7968 20.4801L42.4014 18.5973L40.5721 23.554L44.1529 21.4023L46.7217 16.6377L46.3325 10.4514L45.4762 0L40.5721 7.87696L39.7159 6.41684Z" fill="#E7FBF8"/>
<path d="M18.6043 44.8075L17.2031 48.8421L14.79 46.0755L16.1133 49.6874L9.53567 44.1543L4.08672 41.9257L7.93991 41.4262L5.25435 40.1582L0 39.0055L3.23045 37.2764L7.12256 36.5848L4.74838 34.8557H11.0925L8.91294 31.2822L16.4463 32.5626L18.0594 31.7817L21.2898 39.0055L22.1072 43.4243L20.5114 41.4262L18.6043 44.8075Z" fill="#E7FBF8"/>
<path d="M32.0905 44.8075L33.4917 48.8421L35.9048 46.0755L34.5815 49.6874L41.1592 44.1543L46.6081 41.9257L42.7549 41.4262L45.4405 40.1582L50.6948 39.0055L47.4644 37.2764L43.5723 36.5848L45.9464 34.8557H39.6023L41.7819 31.2822L34.2485 32.5626L32.6354 31.7817L29.405 39.0055L28.5876 43.4243L30.1834 41.4262L32.0905 44.8075Z" fill="#E7FBF8"/>
<path d="M21.7337 52.7565C21.796 52.9102 24.3544 54.2422 25.4312 54.8314L29.1287 52.7565L29.8293 50.8353L29.1287 47.915L25.4312 46.4165L21.7337 47.915L20.8774 50.8353C21.1369 51.4117 21.6714 52.6028 21.7337 52.7565Z" fill="#E7FBF8"/>
</svg>
